<?xml version="1.0" encoding="utf-8"?>
<!-- Generator: Adobe Illustrator 20.1.0, SVG Export Plug-In . SVG Version: 6.00 Build 0)  -->
<svg version="1.1" id="Layer_1" xmlns="http://www.w3.org/2000/svg" x="0px" y="0px"
     viewBox="0 0 32 28" style="enable-background:new 0 0 32 28;" xml:space="preserve">
<style type="text/css">
	.st0 {
        fill: #9e141f;
    }
</style>
    <g>
	<path class="st0" d="M11.4,24.2c-0.3-0.1-0.5,0.1-0.5,0.3v2.1c0,0.3,0.2,0.6,0.5,0.6l1.3,0.3c0.3,0.1,0.5-0.1,0.5-0.4v-2
		c0-0.3-0.2-0.6-0.5-0.6L11.4,24.2z"/>
        <path class="st0" d="M19.3,0.3c-0.2,0-0.4,0.2-0.4,0.4v0.5c0,0.3,0,0.7,0,1v0.5c0,0.3,0.2,0.5,0.4,0.6c0.2,0,0.9,0.2,1.1,0.3
		c0.2,0.1,0.7,0,0.7-0.3V2.8c0-0.3,0-0.7,0-1V1.3c0-0.3-0.2-0.5-0.4-0.6C20.6,0.6,19.5,0.4,19.3,0.3z"/>
        <path class="st0" d="M23.6,1.7c-0.9-0.4-1.1,0.2-1.1,0.6v1c0,1.2,0.9,1.7,0.9,1.7l0,0c3.4,2,5.7,5.3,5.7,9.1
		c0,5.4-4.7,9.9-10.8,10.8c-0.4,0-0.7-0.3-0.7-0.7V1h0c0-0.5-0.4-0.9-0.9-1c-0.2,0-0.4,0-0.6,0C7.2,0,0,6.3,0,14
		c0,5.3,3.4,9.9,8.4,12.3c0.9,0.5,1.1-0.2,1.1-0.6v-1c0-1.2-0.9-1.7-0.9-1.7l0,0c-3.4-2-5.6-5.3-5.6-9C3,8.6,7.7,4.1,13.8,3.2
		c0.4,0,0.7,0.3,0.7,0.7v21.1h0V27c0,0.5,0.4,0.9,0.9,1c0.2,0,0.4,0,0.6,0c8.8,0,16-6.3,16-14C32,8.7,28.6,4,23.6,1.7z"/>
</g>
</svg>
