<?xml version="1.0" encoding="utf-8"?>
<!-- Generator: Adobe Illustrator 25.0.1, SVG Export Plug-In . SVG Version: 6.00 Build 0)  -->
<svg version="1.0" id="katman_1" xmlns="http://www.w3.org/2000/svg" xmlns:xlink="http://www.w3.org/1999/xlink" x="0px" y="0px"
	 viewBox="0 0 485.5 368.5" style="enable-background:new 0 0 485.5 368.5;" xml:space="preserve">
<style type="text/css">
	.st0{fill:#F9C81D;}
	.st1{fill-rule:evenodd;clip-rule:evenodd;fill:#FEFEFE;}
	.st2{fill-rule:evenodd;clip-rule:evenodd;}
</style>
<path d="M407.5,274.8l-1.2,1.8l-1.1,1.6l-3.3-2.4l2.2-3.4L407.5,274.8z M397.6,281.4l-0.3-0.9l9.2,0.3c1,0,3.1-0.1,6.3-0.3l-0.3,0.9
	l-4.7,0.6l-0.1,2l-0.2,9c0,1.5,0,4.4,0.1,8.8l0.2,8.7c0.1,0,0.4,0.1,0.7,0.1c1,0.2,1.7,0.3,1.9,0.3l2.1,0.2l0.3,0.9l-8.3-0.2
	l-7.1,0.2l0.2-0.9l3.1-0.4l1.7-0.3l0.1-2.5l0.1-4.8v-5.8v-8.8l-0.2-6.7C402,282,400.4,281.8,397.6,281.4z M391.2,289.2l-1.1-0.4
	c0-0.4,0-0.9-0.1-1.7c0-0.8-0.1-1.3-0.1-1.7c-0.5-1.2-1.3-2.2-2.4-2.9c-1.1-0.7-2.3-1.1-3.7-1.1c-1.3,0-2.4,0.3-3.4,1
	c-1.1,0.7-1.7,1.7-1.9,2.9c0,1.5,0.5,2.6,1.4,3.5c0.9,0.8,2.6,2,5.1,3.7c2.4,1.6,4.1,3.1,5.1,4.3c1.4,1.8,2.1,3.8,2.1,6.2v1.3
	c-0.4,3.8-2.4,6.3-6,7.6c-1.7,0.6-3.4,0.9-5.3,0.9c-2,0-4-0.4-5.9-1.1l-0.9,4.7l-1,0.3c0.2-0.7,0.4-2.3,0.6-4.8
	c0.3-3,0.4-5.6,0.3-7.7v-1.9l0.9,0.3c0,0.2,0,0.4,0,0.5c0,0.5,0,1,0.1,1.6c0,0.1,0.1,0.7,0.2,1.8c0.9,2.3,2.6,3.9,5,4.7
	c0.7,0.2,1.4,0.4,2.1,0.4c0.9,0,1.9-0.3,3-0.8c2.1-1.1,3.2-2.7,3.2-4.9c0-2.8-1.9-5.2-5.7-7.3c-5.3-3-7.9-6.6-7.9-10.8
	c0-2.9,1.4-5.1,4.3-6.5c1.4-0.7,3.2-1.1,5.2-1.1c1.7,0,3.7,0.3,5.8,0.8c0.2-1,0.5-2.2,0.8-3.7l1.1-0.1
	C391.5,282.5,391.2,286.6,391.2,289.2z M348.9,282.1c-0.8-0.2-2.4-0.4-4.7-0.7l-0.2-0.9l9.7,0.2c2.4,0,5.1,0,8.1-0.1
	c1.9-0.1,3-0.1,3.3-0.2l0.1-0.8l0.2-1.3l1.1-0.2c-0.1,0.6-0.3,2.4-0.6,5.5l-0.4,3.9l0.1-0.1l-0.9-0.4v-3.1c-0.3-0.7-2.3-1.3-6.2-1.7
	c-1.6-0.2-3-0.3-4-0.3c0,1.4,0,3.1-0.1,4.8l-0.2,8c4.7,0,7.8-0.3,9.3-0.8c0.2-0.7,0.4-1.3,0.5-1.9l1-0.1l-0.6,3.5l-0.7,4.9L363,300
	l0.1-1.4c0-0.3,0-0.8,0.1-1.5c-1.3-0.7-4.3-1-8.8-1c0,0.6,0,1.1-0.1,1.6l0.4,13.1c5.5,0,9.1-0.5,10.7-1.6c0.2-0.6,0.6-1.9,1-3.9
	l1.1-0.3l-0.9,5.8c-0.1,0.6-0.3,1.7-0.5,3.3c-0.1,0.5-0.1,0.9-0.1,1.3l-0.9-0.2v-2.7c-0.2-0.1-1-0.1-2.3-0.2l-4.3-0.1l-6.4-0.1
	c-1.4,0-4.1,0.1-7.9,0.3l0.3-1c1.4,0,2.9-0.2,4.6-0.6l0.3-16.3c0-0.9,0-2.5-0.1-4.8L348.9,282.1z M309,288.9
	c0.4-4.1,0.6-7.9,0.6-11.4l1.1,0.2c0,1.6,0.1,2.6,0.3,3l9,0.4c1.8,0.1,3.5,0.1,5,0.1c2.8,0,6.6-0.1,11.4-0.3c1.9-0.1,3.3-0.1,4-0.1
	l0.3-1.3l0.3-1.5l0.5-0.1l0.6-0.1c-0.2,1.3-0.4,2.4-0.5,3.3l-1,8.2c-0.4-0.2-0.7-0.3-1-0.3l0.1-4.5c-0.6-0.7-3.1-1.2-7.5-1.7
	c-1.7-0.2-3.1-0.3-4.2-0.3l-0.1,2.1l-0.1,3.8l-0.1,5.4c0,0,0,3,0,9c0,2.6,0.1,5.3,0.2,7.9c2,0.2,4,0.4,5.7,0.6l0.2,1
	c-1.3-0.2-3.9-0.2-7.9-0.2l-5.4,0.1l-4.1,0.1l0.3-0.9l4.7-0.5c0.5-0.1,0.8-0.1,0.9-0.1c0-2.2,0-4,0-5.5l0.1-5.5
	c0-2.2,0.1-3.6,0.1-4.4c0-2.2,0-4.3-0.1-6.1l-0.1-6.6c-5.8,0-9.6,0.6-11.6,1.8c-0.2,0.3-0.4,1-0.6,2.1l-0.4,2.2l-0.5,0.2
	C309.4,288.8,309.2,288.8,309,288.9z M301.2,274.8l-1.2,1.8l-1.1,1.6l-3.3-2.4l2.2-3.4L301.2,274.8z M291.3,281.4l-0.3-0.9l9.2,0.3
	c1,0,3.1-0.1,6.3-0.3l-0.3,0.9l-4.7,0.6l-0.1,2l-0.2,9c0,1.5,0,4.4,0.1,8.8l0.2,8.7c0.1,0,0.4,0.1,0.7,0.1c1,0.2,1.7,0.3,1.9,0.3
	l2.1,0.2l0.3,0.9l-8.3-0.2l-7.1,0.2l0.2-0.9l3.1-0.4l1.7-0.3l0.1-2.5l0.1-4.8v-5.8v-8.8l-0.2-6.7C295.6,282,294.1,281.8,291.3,281.4
	z M284.8,289.2l-1.1-0.4c0-0.4,0-0.9-0.1-1.7c0-0.8-0.1-1.3-0.1-1.7c-0.5-1.2-1.3-2.2-2.4-2.9c-1.1-0.7-2.3-1.1-3.7-1.1
	c-1.3,0-2.4,0.3-3.4,1c-1.1,0.7-1.7,1.7-1.9,2.9c0,1.5,0.5,2.6,1.4,3.5c0.9,0.8,2.6,2,5.1,3.7c2.4,1.6,4.1,3.1,5.1,4.3
	c1.4,1.8,2.1,3.8,2.1,6.2v1.3c-0.4,3.8-2.4,6.3-6,7.6c-1.7,0.6-3.4,0.9-5.3,0.9c-2,0-4-0.4-5.9-1.1l-0.9,4.7l-1,0.3
	c0.2-0.7,0.4-2.3,0.6-4.8c0.3-3,0.4-5.6,0.3-7.7v-1.9l0.9,0.3c0,0.2,0,0.4,0,0.5c0,0.5,0,1,0.1,1.6c0,0.1,0.1,0.7,0.2,1.8
	c0.9,2.3,2.6,3.9,5,4.7c0.7,0.2,1.4,0.4,2.1,0.4c0.9,0,1.9-0.3,3-0.8c2.1-1.1,3.2-2.7,3.2-4.9c0-2.8-1.9-5.2-5.7-7.3
	c-5.3-3-7.9-6.6-7.9-10.8c0-2.9,1.4-5.1,4.3-6.5c1.4-0.7,3.2-1.1,5.2-1.1c1.7,0,3.7,0.3,5.8,0.8c0.2-1,0.5-2.2,0.8-3.7l1.1-0.1
	C285.2,282.5,284.8,286.6,284.8,289.2z M243.6,297.6c0,1.6,0,3.1,0.1,4.5l0.2,4.8c0,1.4,0.1,2.6,0.1,3.7c0.3,0.1,1.2,0.3,2.7,0.4
	l2.1,0.2l0.2,0.9l-6.4-0.2c-4.9-0.1-7.9,0-8.9,0.3l0.2-1.1c0.6,0,1.6-0.1,2.8-0.3c0.7-0.1,1.3-0.2,1.9-0.3c0.1-1.8,0.1-3.5,0.1-5.2
	l0.1-8.9c0-1.5,0-3.2,0-5.3c0-0.2,0-2-0.1-5.3l-0.1-3.9l-4.8-0.5l-0.1-0.9l12.8-0.1c5.4,0,9,0.6,10.7,1.9c1.7,1.3,2.6,2.8,2.6,4.5
	c0,1.5-0.7,3.2-2.2,5c-1.3,1.6-2.7,2.8-4.2,3.5c2.4,4.3,5.3,8.7,8.7,13.2c1.6,2.1,2.8,3.6,3.7,4.5l-1.9,0.4
	c-1.1-0.7-2.8-2.2-5.2-4.5c-1-0.9-2.5-2.5-4.5-4.7c-0.4-0.4-1.1-1.2-2.2-2.4l-4-4.5C246.4,297.5,244.9,297.6,243.6,297.6z
	 M243.6,296.1c3.7,0,6.5-0.9,8.4-2.7c1.2-1.1,1.9-2.6,2.2-4.5c0-2.8-1.4-4.8-4.1-6.2c-1.5-0.7-3.6-1.1-6.1-1.1h-0.2v3.9L243.6,296.1
	z M209.8,282.1c-0.8-0.2-2.4-0.4-4.7-0.7l-0.2-0.9l9.7,0.2c2.4,0,5.1,0,8.1-0.1c1.9-0.1,3-0.1,3.3-0.2l0.1-0.8l0.2-1.3l1.1-0.2
	c-0.1,0.6-0.3,2.4-0.6,5.5l-0.4,3.9l0.1-0.1l-0.9-0.4v-3.1c-0.3-0.7-2.3-1.3-6.2-1.7c-1.6-0.2-3-0.3-4-0.3c0,1.4,0,3.1-0.1,4.8
	l-0.2,8c4.7,0,7.8-0.3,9.3-0.8c0.2-0.7,0.4-1.3,0.5-1.9l1-0.1l-0.6,3.5l-0.7,4.9l-0.9-0.3l0.1-1.4c0-0.3,0-0.8,0.1-1.5
	c-1.3-0.7-4.3-1-8.8-1c0,0.6,0,1.1-0.1,1.6l0.4,13.1c5.5,0,9.1-0.5,10.7-1.6c0.2-0.6,0.6-1.9,1-3.9l1.1-0.3l-0.9,5.8
	c-0.1,0.6-0.3,1.7-0.5,3.3c-0.1,0.5-0.1,0.9-0.1,1.3l-0.9-0.2v-2.7c-0.2-0.1-1-0.1-2.3-0.2l-4.3-0.1l-6.4-0.1
	c-1.4,0-4.1,0.1-7.9,0.3l0.3-1c1.4,0,2.9-0.2,4.6-0.6l0.3-16.3c0-0.9,0-2.5-0.1-4.8L209.8,282.1z M168.2,281.4l-0.2-0.9l2.9,0.1
	l3.1,0.1l8.2-0.2l-0.2,0.9c-2.1,0-3.5,0.2-4.3,0.7c0.5,1.4,0.9,2.3,1.1,2.8l1.3,3.2c0.2,0.6,0.8,1.8,1.6,3.7c1.6,3.7,3,7,4.3,9.8
	c1.2,2.7,1.9,4.1,2,4.1l1.6-3.5l3.4-7.2c2.9-6.2,4.6-10.5,5.1-13c-1.5-0.2-2.9-0.4-4.2-0.6l-0.2-0.9l6.7,0.2l2.5-0.1
	c0.5,0,1.2-0.1,2.3-0.1l-0.3,0.9c-0.5,0.2-1,0.3-1.4,0.4c-0.4,0.1-0.8,0.2-1.2,0.2c-0.5,0.7-1.4,2.4-2.8,5c-0.2,0.3-0.6,1.2-1.4,2.7
	l-1.6,3c-0.7,1.3-1.2,2.4-1.7,3.3l-2.5,5c-0.4,0.8-1.1,2.3-2.3,4.7l-4,8.3l-2.5-5.2l-10.2-21.9c-1.4-2.9-2.2-4.5-2.5-4.9l-0.9-0.3
	l-1.1-0.2L168.2,281.4z M162,274.8l-1.2,1.8l-1.1,1.6l-3.3-2.4l2.2-3.4L162,274.8z M152.1,281.4l-0.3-0.9l9.2,0.3
	c1,0,3.1-0.1,6.3-0.3l-0.3,0.9l-4.7,0.6l-0.1,2l-0.2,9c0,1.5,0,4.4,0.1,8.8l0.2,8.7c0.1,0,0.4,0.1,0.7,0.1c1,0.2,1.7,0.3,1.9,0.3
	l2.1,0.2l0.3,0.9L159,312l-7.1,0.2l0.2-0.9l3.1-0.4l1.7-0.3l0.1-2.5l0.1-4.8v-5.8v-8.8l-0.2-6.7C156.5,282,155,281.8,152.1,281.4z
	 M110.9,312.2l0.2-0.9l2.7-0.4c0.4-0.1,0.8-0.1,1.1-0.3c0.4-1.6,0.7-6.4,1-14.4c0.1-4.2,0.2-8.9,0.2-14c-0.2-0.1-1-0.2-2.2-0.3
	l-2.7-0.2l-0.3-0.9l3.1-0.1l7.2-0.2c1.4,2,3.1,4.3,5.2,6.8c0.3,0.4,1,1.2,2.1,2.6c0.4,0.5,1.2,1.4,2.2,2.7l2.4,2.8l6,7
	c1,1.2,1.9,2.2,2.6,3.1l-0.1-8.2c0-1,0-2.8-0.1-5.6l-0.1-3.8c-0.1-2.1-0.3-4.1-0.7-5.8l-2.2-0.3c-1.4-0.2-2.1-0.3-2.3-0.3l-0.3-0.9
	l6.4,0.2l5.9-0.2l-0.2,0.9l-1.7,0.4l-1.7,0.4c-0.4,1-0.5,2.4-0.5,4.2c0,0.8,0,1.6-0.1,2.6c-0.1,1.8-0.2,3.3-0.3,4.6l-0.6,20.9
	l-25.5-29.8c0,1.6,0,3.3,0.1,5.1l0.2,6c0.1,1.8,0.1,3.5,0.1,5.1c0,4.9,0.2,8.2,0.6,9.9c0.4,0.2,1.2,0.3,2.5,0.4l2.4,0.2l0.2,0.9
	l-6.8-0.2L110.9,312.2z M76.3,282l-1.7-0.4l-1.8-0.3l-0.2-0.9l6.5,0.2l4-0.1l3.7-0.1l-0.3,0.9l-2.7,0.4c-1.3,0.2-2,0.3-2,0.4
	c0,1.7,0,3.1,0,4.2l-0.1,4.3l0.1,8c0,2.8,0.3,4.9,0.9,6.6c1.1,3.1,2.8,4.9,5.2,5.6c1,0.3,2.1,0.4,3.2,0.4c4.1,0,6.7-1.8,8-5.3
	c0.6-1.8,0.9-3.8,1-6l0.1-6.6c0-0.8,0-2.1-0.1-4c-0.1-3.6-0.2-6-0.2-7.1l-2.3-0.3c-1.2-0.2-2-0.2-2.5-0.2l-0.4-0.9l7.6,0.3l5.1-0.3
	l-0.2,0.9c-1.9,0.3-2.9,0.5-3.2,0.6l-0.1,2.1l-0.1,2.3v7.8c0,0.7,0,1.7,0,3c0,1.5,0,2.4,0,2.9c0,3.4-1.1,6.3-3.5,8.7
	c-2.3,2.4-5.2,3.7-8.8,3.8l-1.3,0c-1.6,0.1-3.3-0.2-5.1-0.7c-2.7-0.8-4.8-2.3-6.3-4.5c-1.5-2.1-2.2-4.6-2.2-7.4c0-1.3,0-2.7,0-4.3
	l-0.1-4.3c0-0.6,0-1.7,0.1-3.1c0-1.2,0-2.3,0-3.4C76.6,283.8,76.5,282.8,76.3,282z M83.3,275.3l1-1.6l1.2-1.9l3.4,2.3l-1.2,1.8
	c-0.7,1.1-1.1,1.6-1.1,1.7c-0.1-0.1-0.6-0.5-1.6-1.2L83.3,275.3z M98.5,274.1l-1.2,1.8l-1.1,1.6l-3.3-2.4l2.2-3.4L98.5,274.1z
	 M314.3,244.2v-2.1l2.9-2.4c0.1-0.1,0.8-0.7,2.2-1.9c0.5-0.4,1.4-1.2,2.5-2.3c1.7-1.6,3-2.7,3.7-3.3c1.9-1.8,2.9-2.9,3.3-3.5
	l-3.4-0.6l-0.1-0.9l6.4,0.2l5.3-0.2l-0.4,0.9c-1.1,0.2-2,0.4-2.8,0.5c-0.7,0.4-1.5,1-2.5,1.8l-1.9,1.4c-0.1,0-0.4,0.4-1.2,1
	l-6.6,5.6c0.5,0.8,1.4,2.1,2.8,3.9c0.2,0.2,0.7,0.9,1.5,2l3.5,4.5c0.8,1,1.8,2.2,2.8,3.5l2.6,3.1c1.2,1.5,2.5,2.9,3.7,4.2l-1.5,0.5
	c-1.4-0.5-4.3-2.9-8.7-7.1c-2.4-2.3-4.5-4.3-6.2-6.1l-4.9-4.9l-1.2,0.9l-1,0.9L314.3,244.2z M304.3,228l-0.2-0.9l7.6,0.2l7.6-0.2
	l-0.1,0.9l-2.5,0.3c-1.4,0.2-2.1,0.3-2.1,0.5l-0.3,16.2c-0.1,3.8,0,7.3,0.2,10.3l0.1,1.7c0.4,0.2,2.1,0.5,5.1,0.9l0.1,1
	c-2.6-0.2-5.1-0.3-7.3-0.3l-8.3,0.2l0.2-0.9l1.8-0.2l1.9-0.2c0.5-0.1,0.9-0.1,1-0.2c0-0.8,0-1.9,0-3.2l0.1-4c0-1.3,0-2.6,0-3.7
	c0-1.5,0-3.6-0.1-6.2l-0.2-11.5l-1.7-0.2C306.7,228.3,305.7,228.2,304.3,228z M269.3,228.6l-1.7-0.4l-1.8-0.3l-0.2-0.9l6.5,0.2
	l4-0.1l3.7-0.1l-0.3,0.9l-2.7,0.4c-1.3,0.2-2,0.3-2,0.4c0,1.7,0,3.1,0,4.2l-0.1,4.3l0.1,8c0,2.8,0.3,4.9,0.9,6.6
	c1.1,3.1,2.8,4.9,5.2,5.6c1,0.3,2.1,0.4,3.2,0.4c4.1,0,6.7-1.8,8-5.3c0.6-1.8,0.9-3.8,1-6l0.1-6.6c0-0.8,0-2.1-0.1-4
	c-0.1-3.6-0.2-6-0.2-7.1l-2.3-0.3c-1.2-0.2-2-0.2-2.5-0.2l-0.4-0.9l7.6,0.3l5.1-0.3l-0.2,0.9c-1.9,0.3-2.9,0.5-3.2,0.6l-0.1,2.1
	l-0.1,2.3v7.8c0,0.7,0,1.7,0,3c0,1.5,0,2.4,0,2.9c0,3.4-1.1,6.3-3.5,8.7c-2.3,2.4-5.2,3.7-8.8,3.8l-1.3,0c-1.6,0.1-3.3-0.2-5.1-0.7
	c-2.7-0.8-4.8-2.3-6.3-4.5c-1.5-2.1-2.2-4.6-2.2-7.4c0-1.3,0-2.7,0-4.3l-0.1-4.3c0-0.6,0-1.7,0.1-3.1c0-1.2,0-2.3,0-3.4
	C269.5,230.4,269.4,229.4,269.3,228.6z M261.9,256.7c-3.4,1.8-7.5,2.6-12.4,2.6h-1.6l-2.4,2.7c2.7,0.7,4,1.9,4,3.6
	c0,1.6-1,2.9-3.1,3.8c-1.6,0.7-3.3,1-5.2,1l0.3-1.5c2.6,0,4-0.6,4.4-1.8l0.1-0.3c0.1-0.2,0.1-0.4,0.1-0.7c0-1.5-1.2-2.5-3.5-3
	l3.1-3.8c-1.6,0-3.5-0.5-5.7-1.4c-3.9-1.6-6.8-4.3-8.6-7.9c-1-2-1.5-4.1-1.5-6.1c0-3.8,1.1-7.1,3.2-9.9c2.1-2.8,4.9-4.8,8.5-6.1
	c2.6-0.9,5.5-1.4,8.7-1.4c3,0,6.1,0.4,9.4,1.2c0-0.1,0.2-0.6,0.4-1.6l0.5-2.4l1.1-0.3c-0.2,1.1-0.5,3.1-0.7,6.1
	c-0.3,3.6-0.5,5.9-0.5,7l0.1,0.9l-1-0.3v-1c0-1-0.1-1.9-0.3-2.8c-0.6-1.6-2.5-3.1-5.7-4.3c-1.8-0.7-3.4-1-5-0.9l-1.5,0.1
	c-1.7,0.1-3.5,0.6-5.2,1.5c-1.7,0.9-3.1,2-4.1,3.4c-1.8,2.4-2.6,5.1-2.6,8.2c0,2.9,0.8,5.7,2.4,8.3c1.6,2.6,3.8,4.5,6.4,5.8
	c2.7,1.3,5.5,2,8.4,2c3.4,0,6.7-0.9,10-2.5L261.9,256.7z M224.3,254.8c0.5-1.2,1-2.8,1.6-5l1.1-0.3c-0.5,1.5-1.1,4.9-1.9,10.1
	c-0.3,2.4-0.5,3.9-0.5,4.6l-1-0.3l0.2-5.2l-20.7-0.1l0.2-0.9c1.8,0,3.4-0.2,4.8-0.6l0.1-12.7l-0.1-16l-1.9-0.3l-2.9-0.4l-0.2-0.9
	l7.9,0.2l8.1-0.2l-0.2,0.9l-5.3,0.7l-0.1,1.4l-0.2,12c0,1.7,0,4.4,0.1,8.1c0,2.3,0.1,4.6,0.2,7C218.5,257.2,222.1,256.4,224.3,254.8
	z M179.5,228.7c-0.8-0.2-2.4-0.4-4.7-0.7l-0.2-0.9l9.7,0.2c2.4,0,5.1,0,8.1-0.1c1.9-0.1,3-0.1,3.3-0.2l0.1-0.8l0.2-1.3l1.1-0.2
	c-0.1,0.6-0.3,2.4-0.6,5.5l-0.4,3.9l0.1-0.1l-0.9-0.4v-3.1c-0.3-0.7-2.3-1.3-6.2-1.7c-1.6-0.2-3-0.3-4-0.3c0,1.4,0,3.1-0.1,4.8
	l-0.2,8c4.7,0,7.8-0.3,9.3-0.8c0.2-0.7,0.4-1.3,0.5-1.9l1-0.1l-0.6,3.5l-0.7,4.9l-0.9-0.3l0.1-1.4c0-0.3,0-0.8,0.1-1.5
	c-1.3-0.7-4.3-1-8.8-1c0,0.6,0,1.1-0.1,1.6l0.4,13.1c5.5,0,9.1-0.5,10.7-1.6c0.2-0.6,0.6-1.9,1-3.9l1.1-0.3l-0.9,5.8
	c-0.1,0.6-0.3,1.7-0.5,3.3c-0.1,0.5-0.1,0.9-0.1,1.3l-0.9-0.2v-2.7c-0.2-0.1-1-0.1-2.3-0.2l-4.3-0.1l-6.4-0.1
	c-1.4,0-4.1,0.1-7.9,0.3l0.3-1c1.4,0,2.9-0.2,4.6-0.6l0.3-16.3c0-0.9,0-2.5-0.1-4.8L179.5,228.7z M168.4,235.9l-1.1-0.4
	c0-0.4,0-0.9-0.1-1.7c0-0.8-0.1-1.3-0.1-1.7c-0.5-1.2-1.3-2.2-2.4-2.9c-1.1-0.7-2.3-1.1-3.7-1.1c-1.3,0-2.4,0.3-3.4,1
	c-1.1,0.7-1.7,1.7-1.9,2.9c0,1.5,0.5,2.6,1.4,3.5c0.9,0.8,2.6,2,5.1,3.7c2.4,1.6,4.1,3.1,5.1,4.3c1.4,1.8,2.1,3.8,2.1,6.2v1.3
	c-0.4,3.8-2.4,6.3-6,7.6c-1.7,0.6-3.4,0.9-5.3,0.9c-2,0-4-0.4-5.9-1.1l-0.9,4.7l-1,0.3c0.2-0.7,0.4-2.3,0.6-4.8
	c0.3-3,0.4-5.6,0.3-7.7v-1.9l0.9,0.3c0,0.2,0,0.4,0,0.5c0,0.5,0,1,0.1,1.6c0,0.1,0.1,0.7,0.2,1.8c0.9,2.3,2.6,3.9,5,4.7
	c0.7,0.2,1.4,0.4,2.1,0.4c0.9,0,1.9-0.3,3-0.8c2.1-1.1,3.2-2.7,3.2-4.9c0-2.8-1.9-5.2-5.7-7.3c-5.3-3-7.9-6.6-7.9-10.8
	c0-2.9,1.4-5.1,4.3-6.5c1.4-0.7,3.2-1.1,5.2-1.1c1.7,0,3.7,0.3,5.8,0.8c0.2-1,0.5-2.2,0.8-3.7l1.1-0.1
	C168.8,229.2,168.4,233.2,168.4,235.9z"/>
<path class="st0" d="M171.3,163c3.9,9.2,9.6,17.5,16.6,24.4c14.1,14.1,33.5,22.9,55,22.9v0h0h0v0c21.4,0,40.9-8.8,55-22.9
	c6.9-6.9,12.4-15,16.4-24c-6.7-4.3-9.2-12.9-8.6-22.7c-5.3-1.7-9.3-6-8.9-11c-4.4-0.5-5.8-2.8-6-6.2c-1.2-0.7-4.7-3.1-5-5.8
	c-1.8,1.3-4.1-0.3-4.4-1.2c-1.7,1.1-4.9,0.3-5.9-1.5c-2,0-4-1.6-4-2.2c1.1,1.3,0.7,8.8-2.2,13.5c-0.7,4.6-3.3,12.9-1.7,18.6
	c1.9,6.8,4,10.1,7.5,15.4c0.9,1.6,1.2,2,2.5,0.4c2.2-2.7,6.1-6.7,9.1-6.6c2-1.1,8.2-0.1,8.1,4.5c0.3,0,0.5,0.1,0.7,0.1
	c7.1,1.3,6.3,8.9,3.3,11.6c0.4-4.9-3.4-7.2-4.1-5.8c0.9,1,0.6,3-0.4,4.1c4.6,1.9,2.8,12.8-4.5,10c4.5-3.5,3.2-6.8,0.8-5.9
	c0.8,4-7.9,4.2-8.7-0.5c-1.9,0.6-3.8,0.5-5.1-1c-1.2,1-2.6,1-3.9,0.1c-1,0.6-2.5,0.5-3.3-0.7c-0.1-0.1-0.4,0.2-0.5,0.1
	c-2.1,4-6.6,3.9-8.2-0.5c-1.2-1.8-2.8,0.2-2.1,1.4c0.4,0.7,1.2,1.4,2.2,2.5c-0.7,0.4-1.5,0.3-2.1,0.2c-0.5-0.2-0.6-0.2-1-0.5
	c1.4,2.7,3.6,4.4,5.7,5.9c3.7,2.3,7.5,3.7,11.4,5.7c0.2,0.1,0.4,0.2,0.6,0.4c0.8,0.5,1.3,1.2,1.6,2.1c1.7,2.9-1.3,8.3-5.6,6.6
	c0,0-0.1,0-0.1,0c0.1,0.3,0.3,0.7,0.3,1c1.5,4.5-4.2,7.2-6.6,4.1l0,0l-0.1-0.1c0.1,0.3,0.1,0.5,0.2,0.8c0.8,3.8-4.6,7-7.5,3.1
	c-0.1,4.1-6,5.1-7.5,0.8c0-0.1-0.1-0.2-0.1-0.3c0.2,5.4-6.7,6-7.5,0.9c0,0.2-0.1,0.4-0.1,0.6c0,0,0,0,0,0.1c0,0,0,0.1,0,0.1
	c-1.4,4.2-7.5,3.4-7.3-1.8c0,0.1-0.1,0.2-0.1,0.3c-1.5,4.3-7.5,3.3-7.5-0.8c-3,4-8.5,0.6-7.5-3.3c0-0.2,0.1-0.4,0.2-0.6
	c0,0-0.1,0.1-0.1,0.1l0,0h0c-2.5,3.2-8.4,0.3-6.5-4.5c0.1-0.2,0.2-0.4,0.3-0.7c0,0-0.1,0-0.1,0.1c-4.4,1.9-7.4-3.9-5.4-6.9
	c0.3-0.7,0.8-1.3,1.5-1.7c0.2-0.1,0.4-0.3,0.6-0.4c3.3-1.6,6.6-3,9.8-4.7c2.9-1.7,5.6-3.6,7.4-7c-0.4,0.3-0.5,0.3-1,0.5
	c-0.7,0.1-1.4,0.2-2.1-0.2c1.1-1.1,1.9-1.8,2.3-2.5c0.7-1.2-0.8-3.2-2.1-1.4c-1.6,4.4-6.1,4.6-8.2,0.5c-0.1,0.1-0.4-0.2-0.5-0.1
	c-0.9,1.1-2.3,1.2-3.3,0.6c-1.3,0.9-2.7,0.8-3.9-0.1c-1.3,1.5-3.2,1.6-5.1,1c-0.9,4.6-9.5,4.3-8.7,0.3c-2.4-0.9-3.7,2.4,0.8,5.9
	c-7.2,2.7-9.1-8.2-4.4-10c-1-1.1-1.3-3.1-0.4-4.1c-0.6-1.4-4.5,0.9-4.1,5.8c-3-2.8-3.8-10.4,3.4-11.6c0.2,0,0.5-0.1,0.8-0.1
	c-0.1-4.6,6.1-5.6,8.1-4.5c3.1,0,7,4,9.2,6.6c1.3,1.6,1.6,1.2,2.5-0.4c3.5-5.2,5.7-8.6,7.6-15.3c1.6-5.7-0.9-14-1.6-18.6
	c-2.9-4.7-3.3-12.2-2.1-13.5c0,0.5-2.1,2.2-4,2.2c-1.1,1.8-4.3,2.6-5.9,1.5c-0.3,0.9-2.6,2.5-4.4,1.2c-0.2,2.7-3.8,5-5,5.7
	c-0.3,3.4-1.7,5.7-6.1,6.2c0.4,4.9-3.7,9.3-9,10.9C180.7,150.1,178.1,158.7,171.3,163 M231.4,160.8c0.2,0.2,0.3,0.3,0.4,0.4
	c-0.7,2.3-1,4.3-1.7,6.8c-0.3-2.5-2.8-4.4-6-3.7c-1.3-3.1-4.4-2.5-5.3-1.6c1.6-3.1,3.4-5.6,5.5-9.4c2.8,0.3,4.9-2.1,6-2.8
	C229.9,154.3,229.3,157.7,231.4,160.8z M254.1,160.9c-0.2,0.2-0.3,0.3-0.4,0.4c0.7,2.3,1,4.4,1.7,6.8c0.3-2.6,2.8-4.4,6-3.7
	c1.4-3.1,4.4-2.5,5.3-1.6c-1.5-3.1-3.4-5.6-5.5-9.4c-2.8,0.2-4.9-2.1-5.9-2.9C255.7,154.4,256.3,157.8,254.1,160.9z M193.6,158.7
	c0.7-0.6,1.6-0.5,2.6-0.3c-0.4,0.6-0.4,1.1-0.1,1.7C195.3,159.1,194.3,158.9,193.6,158.7z M292,159.1c-0.7-0.6-1.6-0.6-2.6-0.3
	c0.4,0.6,0.4,1.1,0.1,1.7C290.3,159.5,291.3,159.2,292,159.1z M293.7,73.6c-13.7-11.9-31.5-19.1-50.9-19.1v0h0h0v0
	c-19.2,0-36.8,7-50.4,18.7c4.1,1.6,7.7,5.1,9.8,9.2c3.3,7.2,10.4,20.7,26.1,10.9c0.1-1.2,0.6-2.4,1.8-2.9l0-0.5
	c-0.1-1.4-1.2-1.7-2.7-2c-0.6-0.1-1,0-1.6-0.2c-1.6-0.4-1.5-1.1-2.4-1.4c-5.1-0.7-5.6-4.9-5.6-7.3c-1.1-3-6.2-2-6.6,1.9
	c-5.7-3.7-2.9-10.8,3.4-12.4c0.5-3.5,4.3-3.5,6.2-3.3c0.8-0.5,1.5-1,2.7-1.4c1-2.5,3-5,5-5.8c1.7,1.3,2.8,3.5,3.2,5.8
	c0.1,0,0.2,0.1,0.4,0.1c2.8-1.9,6.6-2.3,9.6-0.8c0.6,2.9-0.9,7-2.9,9.3c1.7,2,3.5,5.8,4.3,7.6c0.9-1.9,2.6-5.6,4.3-7.5
	c-2-2.3-3.4-6.4-2.8-9.3c3.1-1.5,6.9-1,9.6,0.8c0.1,0,0.2-0.1,0.4-0.1c0.5-2.3,1.6-4.4,3.3-5.7c2,0.8,3.9,3.3,4.9,5.8
	c1.2,0.5,1.9,0.9,2.6,1.5c1.9-0.2,5.7-0.2,6.2,3.3c6.3,1.6,9.1,8.8,3.3,12.4c-0.3-4-5.4-4.9-6.5-2c-0.1,2.4-0.6,6.6-5.7,7.2
	c-1,0.3-0.8,1-2.4,1.4c-0.6,0.1-1,0.1-1.6,0.2c-1.6,0.3-2.7,0.5-2.8,2l0,0.5c1.3,0.5,1.8,1.7,1.8,2.9c15.6,9.9,22.8-3.6,26.1-10.7
	C286,78.6,289.6,75.1,293.7,73.6z"/>
<path class="st1" d="M253.2,147.2c-2.3-7.7-3.2-15.9-3-20.4c0.3-5.2,2.7-10.6,9.1-10c2.9,0.3,6.6,2.4,7.8,8
	c2.7-4.6,4.3-8.7,2.3-14.3c1.5,1.5,5.3,4.3,5.6,2.9c-0.7-3.8-2.2-4.4-4.7-11.4c-1-0.6-1.8-1.9-2.3-3.6c-3.7,0.2-8.3-2-10.6-3.5
	c-4.3,9.8-24.5,9.6-28.7-0.2c-2.3,1.4-7,3.6-10.7,3.4c-0.5,1.7-1.4,3-2.4,3.6c-2.5,7-4.1,7.5-4.8,11.4c0.2,1.4,4.1-1.4,5.6-2.9
	c-2,5.6-0.4,9.7,2.2,14.3c1.2-5.6,5-7.7,7.9-8c6.3-0.5,8.8,4.9,9,10.1c0.2,4.5-0.8,12.7-3.1,20.4
	C236.5,158.1,249.1,158.3,253.2,147.2 M231.9,148.8c-0.6,5.5-1.4,6.9,1,12.4l-0.1,0.2c-0.4,1.3-0.8,2.7-1.1,4.1
	c-0.9,4.2-2,8.1-4.8,11.3c0.3,0,0.7,0,1,0.1c0.3,0.1,0.7,0.3,1,0.5c0.3,0.2,0.6,0.5,0.8,0.8c0.2,0.4,0.3,0.8,0.3,1.3
	c0.5-0.1,1.2-0.3,2,0.2l0.1,0c0.4,0.3,0.7,0.7,0.8,1.1c0,0.1,0.1,0.2,0.1,0.3c0.1,0,0.1,0,0.2-0.1c0.1,0,0.2-0.1,0.3-0.1
	c0,0,0.1,0,0.1,0c0.5-0.1,1.1-0.1,1.7,0.2l0.1,0c0.4,0.3,0.6,0.7,0.8,1.1l0,0.1c0.3-0.2,0.6-0.3,1-0.3c0.3,0,0.6-0.1,0.9,0l0.1,0
	c0.8,0.3,1.1,0.7,1.3,1.2c0.3-0.2,0.8-0.4,1.5-0.5l0.1,0l0,0l0,0c0,0,0.1,0,0.1,0c0.1,0,0.1,0,0.2,0l0.1,0l0,0l0,0
	c0.2,0,0.3,0.1,0.4,0.2c0.1,0.1,0.3,0.2,0.4,0.2c0.2,0.2,0.4,0.4,0.5,0.6c0.2-0.2,0.4-0.5,0.6-0.6c0.1-0.1,0.2-0.2,0.4-0.2
	c0.1-0.1,0.3-0.1,0.4-0.2l0,0l0,0l0.1,0c0.4,0,0.7,0.1,0.9,0.2c0.4,0.1,0.7,0.2,0.9,0.4c0.2-0.5,0.5-0.9,1.3-1.2l0.1,0
	c0.6-0.1,1.1,0,1.5,0.2c0.1,0,0.3,0.1,0.4,0.2c0-0.1,0-0.1,0-0.2c0.1-0.4,0.3-0.8,0.8-1.1l0.1,0c0.6-0.3,1.2-0.3,1.7-0.2
	c0.2,0.1,0.4,0.2,0.6,0.3c0-0.1,0-0.2,0.1-0.4c0.1-0.4,0.4-0.7,0.8-1.1l0,0c0.8-0.5,1.5-0.3,2-0.2c0-0.5,0.1-0.9,0.3-1.3
	c0.2-0.3,0.5-0.6,0.8-0.8c0.3-0.2,0.6-0.4,1-0.5c0.3-0.1,0.6-0.1,0.9-0.1c-2.7-3.2-3.8-7-4.6-11.2c-0.3-1.4-0.7-2.8-1.1-4.1
	l-0.1-0.2c2.5-5.5,1.7-6.9,1.1-12.4C250.6,159.9,234.9,159.7,231.9,148.8z M195.9,161.6c-1.9,2.4-3.8,2.7-4.8,1.5
	c-2.9-0.7-4.9,1.6-4.8,5C182.7,157.2,196.5,158.7,195.9,161.6z M230.6,95.1c-1.2-1.3-1.1-3.7,0.7-3.5c0.4,0,0.7,0.1,1,0.4
	c7.7,7.5,13.8,7.2,21.6,0.1c0.3-0.3,0.5-0.4,1-0.4c1.8-0.2,1.9,2.1,0.7,3.5C249.1,102.4,236.8,102.2,230.6,95.1z M243.7,95.9
	c-0.1-3-0.5-6.2-0.2-10.1c0.2-1.6,0.4-3.2,0.7-4.8c0.2-1.2,3.1-7.6,4.9-8c3.8-1.2,4.4-4,4.5-5.7c-0.8,1.5-2.6,4.1-4.4,4.4
	c-2.6-1.9-3.5-4.8-3.4-7.7c4-1.6,7,0.9,8.7,1.7c3.3-1,6.8-2.1,10.1,0.8c5.6-0.6,7.3,2.3,3.9,6.8c0,0-0.5,0.6-0.5,0.7
	c-0.5,0.2-5,1.5-4.8,2.4c2.3-0.9,3.2-1.1,4.4-1.2c-0.5,1.4-0.5,2.6-0.7,3.9c-5.4,0.5-4.3,6.1-6.4,7.4c-4.6,1.6-7-2.3-6.5-6.3
	c-0.1,0.1-0.3,0.5-0.4,0.8c-0.8,5.1,1.5,5.9,3.2,6.5c-1.3,0.3-2.2,1.2-2.2,2.9c-0.7,0-1.3,0.3-1.8,0.8
	C251.7,92.3,247.4,95.7,243.7,95.9z M230.2,63.3c-0.3-1.4-0.7-2.7-2.1-3.9c-1.3,0.9-2.1,2.2-2.8,3.8C226.7,63,228.4,63,230.2,63.3z
	 M241.8,81c-0.2-1.2-3.1-7.6-4.9-8c-3.8-1.2-4.4-4.1-4.4-5.7c0.8,1.5,2.6,4.1,4.4,4.4c2.6-1.9,3.5-4.8,3.5-7.7c-4-1.6-7,0.9-8.7,1.6
	c-3.3-1-6.8-2.2-10.1,0.8c-5.6-0.6-7.4,2.2-4,6.7c0,0,0.5,0.6,0.5,0.7c0.5,0.2,4.9,1.5,4.8,2.4c-2.3-0.9-3.2-1.1-4.4-1.2
	c0.5,1.4,0.5,2.6,0.7,3.9c5.4,0.5,4.2,6.1,6.4,7.5c4.6,1.6,7-2.3,6.5-6.2c0.1,0.1,0.3,0.5,0.3,0.8c0.8,5.1-1.5,5.9-3.3,6.5
	c1.3,0.3,2.2,1.2,2.2,2.9c0.7,0,1.3,0.3,1.8,0.8c1.2,1.3,5.7,5.3,9.4,4.9c0.2-3.2,0.2-6.1,0.1-10C242.3,84.2,242.1,82.6,241.8,81z
	 M223.3,85c-0.3-2.1-1.5-5.7-4.5-5C219.3,83.4,220,84.4,223.3,85z M210,78.7c0.1-4.2,3-6.3,6.5-5.4c-0.8-1.3-1.3-1.8-1.7-3.5
	c-4.6,1.2-6.3,4.1-5.5,7.4C209.3,77.6,209.6,78.3,210,78.7z M218,77.9c-0.1-1.3-0.3-3-1.2-3.4c-2.8-1.7-6.5,1.1-5.9,4.3
	C212.7,75.9,215.5,75,218,77.9z M219.4,145c6.3-0.8,6.4,4.1,4.3,7.2c-2.5,4.2-5,8.7-7.1,12.3c1,0.3,1.3-0.5,2.4-1.1
	c2-0.7,3-1.1,4.6,1.6c-1.3,1.5-1.6,4.1,0.5,4.5c-1.3,4.6-6.3,3-6.9,0.2c-0.9-0.2-1-0.1-1.3-0.5c-0.1,1.2-1.8,1.9-3.1,0.7
	c-0.9,1.5-3.2,0.9-3.9-0.3c-1,1.6-3.2,2.2-5.4,1.2c-0.4,1.9-2.3,3.4-4.1,3.4c-1.8,0-3.7-0.6-3.6-2.1c1.3-1.1,0.6-3.2,0.2-3.5
	c1.1-0.2,2.1-0.6,2.8-0.9c3.6,0.9,9.2,0.1,9.9-1.2c-0.1,0-0.2-0.1-0.3-0.1c-2,0.7-4.1,1.6-9.9,0.5c-2.6,1.9-8.6,1.5-7.2-1.9
	c0-0.1,0.1-0.3,0.2-0.3c2.5,0.3,4.1-1.3,4.9-2.9c3,5.2,9,4.5,12.7,3.1c0-0.2,0.1-0.5-0.1-0.4c-1,0.2-3.8,1.5-6.7,0.7
	c-2.7-0.9-3.6-1.2-5.2-3.2c-0.2,0-0.9-2.7-0.2-3.2c0.9,2.1,4.5,2.4,5-0.4c0.1-1.6-0.5-2.3-1.1-3l0.1-0.1c3.2,1.5,6.1,4.6,6.9,6.8
	c0.7,1.4,2.7,0.6,3.4-0.7c3.4-5.3,5.9-9.2,7.7-15.1C219.1,145.7,219.3,145.6,219.4,145z M227.6,173.4c-0.6,0.4-1.3,0.5-2.1,0.4
	c2.9-2,2.3-4.4,0.8-4.8c-0.5-0.2-1-0.3-1.6,0.1c-1.9-1-1.4-2.4-0.5-3.7C229.5,163.5,231.7,170.9,227.6,173.4z M199.4,154.6
	c0.8,0.3,2.2,1.7,1.9,3.6c-0.8,2.8-4,0.9-3.7-0.2c-3.4-1.5-4.9,0.3-5.5,1.3C190.7,155.3,196.5,153.6,199.4,154.6z M194,177.8
	c-3.3-3.5-1.9-6.8,1.3-6.2c0.6-0.7,1.1-1.1,0.2-2.8c-1.4,0.3-2.6,0-3.3,0C188.4,170.5,188.8,178.2,194,177.8z M224.6,152.2
	c2.6-3.8,1.4-9.4-5.2-8.1c1.3-6.5-0.6-15.7,0.2-18.9c1.9-6.4,4.6-6.9,7.4-7.3c4.7-0.2,6.7,3.4,7.1,8.4c0.5,6.4-1.4,14.9-3.4,20.6
	C229.9,149.7,227.7,152.3,224.6,152.2z M178.7,139.8c-2.2,4.2-5.1,7.3-8,7.8c2.5-17.8,6.8-35.5,11.6-46.9l-0.1,0
	c0.6-0.3,1.1-1,1.6-1.9c1,2.2,2.2,3,3.3,2.8c-1.9,5.7-8,23.1-8.4,33.6C178.7,136.7,178.7,138.3,178.7,139.8z M170.4,149
	c2.9,0.5,6.8-3,8.3-7.3c0,8.7-1.7,17-10.1,20.4C169.5,156.5,170,152.5,170.4,149z M166.8,125.6c-1.8,2.6-6,7.4-8,7.4
	c1.5-5.9,6.1-16,9.3-28.7l4-6.3c0.9,1.9,2.1,2.8,3.2,2.9c-1.6,4.9-4.2,12.4-6.9,20.4C168.1,122.4,168,123.2,166.8,125.6z M158.5,134
	c2.3,0.6,5.6-2.9,8.3-7.2c-2.6,7.4-4.8,14.2-6.5,17.5c-1.7,1.7-4.3,3.5-6.7,2C155.2,141.9,156.9,137.9,158.5,134z M217.4,98.1
	c-1.5,2.5-3.3,3.2-5.3,2.3c0.7-0.7,1.2-1.8,1.6-3.1C214.9,97.7,216.2,97.9,217.4,98.1z M213.3,97.1c-1.7,3.1-3.9,3.7-6.3,2.1
	c0.9-1,1.7-2.6,2.1-4.6C210.4,95.7,211.8,96.5,213.3,97.1z M206.9,99.3c1.1,1.7,2.3,2.4,3.5,2.2c-2,3.8-5.7,9.6-5.7,13.9
	c-1.2,1-2.5,1.4-4,1c-0.9-3.7,4.1-13.9,5.4-16.4C206.4,99.8,206.6,99.5,206.9,99.3z M211.2,101.1c0.2-0.1,0.4-0.2,0.5-0.4
	c1,1.2,2.1,1.6,3.2,1.3c-1.1,3.3-4.1,7.4-5.2,11.8c-0.8,1.3-2,2.1-4,1.3C205.3,110.6,208.5,106.1,211.2,101.1z M199.5,80.5
	c-2.1,4-4.4,4.7-6.5,2c1-1.3,1.9-3.4,2.5-6C197.1,77.6,198.4,79,199.5,80.5z M195.2,76.3c-2.2,6.2-5,8-7.4,5.4
	c1.1-1.6,2.2-4.3,2.9-7.4c0-0.1,0-0.1,0-0.1C192.4,74.7,193.9,75.4,195.2,76.3z M190.3,74c-2.6,10.7-7.3,10.5-10.1,2.4
	c0.3-0.2,0.6-0.5,0.9-0.7C183.6,74.2,187,72.9,190.3,74z M180.1,76.4c0.3,1.8,1.3,5.3,2.3,5.8c-2.1,5.1-5,4.1-7.1-1.3
	C176.7,79.3,178.3,77.8,180.1,76.4z M175.2,81c0.4,2.4,1.6,4.8,2.7,5.2c0.2,0.2,0.2,0.2,0.4,0.3c0,0.1,0,0.3-0.1,0.4
	c-1.3,4.6-4.3,4.8-7.3,0.7C172,85.3,173.4,83.1,175.2,81z M170.8,87.6c1.3,3.3,3.8,4.4,5.2,4.1c-2.8,3.3-5.7,3.4-8.4,1.3
	C168.6,91.4,170,89.3,170.8,87.6z M167.6,93c1.4,3,3.7,3.5,5.7,2.4c-3.1,3.9-5.7,7.7-6.4,8.2c-3,2.3-10.3,2-11.5-0.4
	c2-0.2,6.6-1.9,9.1-5.7C165.6,96.1,166.6,94.7,167.6,93z M174.4,94.7L174.4,94.7L174.4,94.7c1.7,1.6,3.5,1.1,4.8-0.7
	c0.1,0.1,0.2,0.2,0.3,0.2c-1.4,5.7-4.2,6.8-7.2,3.7l2.3-3.2L174.4,94.7z M176.1,100.9c0.9-0.2,1.8-1,2.4-2.3c1,1.9,2,2.6,3.1,2.4
	c-5.5,12-9.9,31-14.5,61.9c-2,9.4-3.4,39.2-15.3,34c2.4-6.3,4.8-17.9,6.2-26.1c0.6-0.8,1.2-1.8,1.8-3.6c4.7-12.9,8.8-39.3,12-52.9
	c-0.7,1.5-2,5.9-2.6,7.9c-2.7,15.4-7.7,37.9-10.4,44.5c-1.5,3.6-5.1,7-9.2,5.9C160.2,152.9,171.6,113.4,176.1,100.9z M187.8,101.3
	c0.5-0.3,1-0.9,1.5-1.7c1.4,1.9,2.9,2.3,4.1,1.6c-2.4,7.9-4.5,16.2-5.4,29.1c-1.2,6-5.5,6.9-8.1,8.4
	C179.8,127.2,184.1,113.1,187.8,101.3z M194.2,100.5c0.2-0.3,0.4-0.5,0.6-0.9c1.2,2.2,2.6,2.6,4.2,2.1c-2.5,6.6-5.3,13.5-5.2,20.9
	c0.1,2.8-0.5,4.7-4.8,5.5c0-0.1-0.1-0.1-0.2-0.2c0.9-10.9,2.8-19.5,5.2-27.1C194.3,100.2,194.2,100.5,194.2,100.5z M200.4,100.3
	c0.3-0.6,0.5-0.8,0.9-1.7c1.2,1.9,2.5,2.4,3.8,2.1c-1.6,3.6-5.4,10.6-5.4,14.8c0,2.5-3.2,5.7-4.9,6.2
	C194.2,117,198.3,104.5,200.4,100.3z M208.7,94.3c-1.7,4.9-4.4,6.4-7.3,4c0.2-0.5,0.4-1.7,0.5-2.3c1.9,1,3.9-0.6,4.9-3.6
	C207.4,93.1,208.1,93.8,208.7,94.3z M206.4,91.9c-1.5,2.7-3.4,3.5-5.4,2.6c0.7-1.2,1.3-2.8,1.5-4.8c0.5-0.5,0.9-1.2,1.3-2
	c0.6,1,1.2,2.1,1.8,3.2C205.9,91.3,206.1,91.6,206.4,91.9z M203.3,86.8c-2.2,3.8-4.8,3.8-6.9,0.1c0.3-0.6,0.7-1.2,0.9-1.9h0
	c1-0.7,1.9-2,2.6-3.8C201.2,82.9,202.2,84.8,203.3,86.8z M182.9,82.9c0.7,0.7,1.4,1,2.1,0.9c-1.9,4.5-4.1,5.7-6.1,3.5l0.1-0.5l0,0
	C180.4,87,181.8,85.5,182.9,82.9z M185.7,83.7c0.6-0.3,1.2-0.8,1.8-1.5c0.9,1.5,1.9,2.1,2.9,2.1c-1.8,3-3.7,3.7-5.5,2
	C185.2,85.4,185.5,84.6,185.7,83.7z M191.4,83.9c0.5-0.2,0.9-0.6,1.4-1.1c1,2.1,2.2,2.9,3.4,2.7c-1.5,2.3-3.1,3.2-4.6,2.7l0,0l0,0
	c-0.5-0.2-1.1-0.5-1.6-1c0,0-0.2-0.1-0.3-0.2C190.3,86.2,190.9,85.2,191.4,83.9z M179.7,94.4c1.7,1.1,3.5,0.6,4.9-1
	c0.1,0.2,0.3,0.4,0.5,0.5c-1.5,5.4-3.6,6.9-6.4,4.3C179.1,97.2,179.4,95.9,179.7,94.4z M185.2,94.2c1.7,1.5,3.6,0.8,4.9-1.2
	c0.2,0.4,0.5,0.7,0.7,1c-1.8,6-4.2,7.5-6.9,4.8C184.5,97.5,184.9,96,185.2,94.2z M190.8,94c1.5,1.6,3.2,1.5,4.4,0.2
	c0.2,0.3,0.4,0.6,0.6,0.9c-1.3,5-3.6,6.4-6.6,4.6C190,98.2,190.6,96.3,190.8,94z M196,95.1c1.6,1.9,3.4,1.6,4.7-0.1
	c0.4,0.4,0.8,0.8,1.2,1c-0.2,0.5-0.4,1-0.7,1.5l-0.1,0l0,0.1c-1.7,3.3-3.9,3.8-6.3,2.1C195.4,98.4,195.9,96.9,196,95.1z M202.4,89.8
	c-0.7,2-1.5,3.4-2.5,4.2c0,0-0.1,0-0.1-0.1c0,0,0,0.1,0.1,0.1c-1.4,1.5-2.9,1.3-4.6,0c1-1.1,1.7-2.8,1.9-5
	C198.8,91.6,200.8,91.6,202.4,89.8z M197.3,89c-1.8,4.7-4.4,5.7-7.2,3.8c0.6-0.9,1-2.1,1.3-3.5c1.7,0.9,3.5-0.1,4.9-2.4
	C196.6,87.8,197,88.5,197.3,89z M191.2,89.2c-1.7,3.9-4,5.1-6.5,4c0.9-1.2,1.6-2.8,1.8-4.8c1,0.3,2-0.2,2.9-1.2
	c0.1,0.1,0.3,0.2,0.2,0.3C190.1,88.3,190.6,88.9,191.2,89.2z M186.5,88.4c-1.8,4.4-4.2,6.2-6.9,4.9c0.5-0.9,0.9-2.1,1.2-3.4
	c1.3,0.3,2.7-0.8,3.8-3C185.1,87.7,185.8,88.2,186.5,88.4z M180.5,89.7c-1.4,3.6-3.3,5.2-5.4,4.1c0.5-0.6,1-1.4,1.4-2.3
	c1-0.5,1.8-1.7,2.2-3.5C179.3,89,179.9,89.5,180.5,89.7z M175,94.1C174.9,94.1,174.9,94.1,175,94.1L175,94.1z M174.6,94.5
	C174.6,94.5,174.5,94.5,174.6,94.5L174.6,94.5z M228.8,179.8c-1.3,1.6-2.7,3.2-4.1,4.8c-0.7,0.7-1.4,1.4-2.1,2.1
	c-0.7,0.7-1.5,1.3-2.2,1.9c-0.9,0.7-1.8,1.5-2.8,2.2c-0.9,0.7-1.9,1.4-2.8,2l0,0c-0.2,0.1-0.5,0.3-0.7,0.4c-0.2,0.1-0.5,0.2-0.7,0.2
	c-1.3,0.2-2.5-0.2-3.5-1.4l0,0c-0.1-0.2-0.2-0.4-0.3-0.6c-0.4-0.8-0.5-1.7-0.3-2.6c0.1-0.3,0.2-0.5,0.3-0.8c0.2-0.3,0.4-0.6,0.7-0.8
	c0.1-0.1,0.3-0.2,0.5-0.3c1.6-0.8,3.1-1.6,4.5-2.2c3-1.4,5.5-2.6,7.8-4.3c1.2-0.8,2.4-1.7,3.6-2.8c0.2,0,0.5,0,0.8,0.1
	c0.3,0.1,0.5,0.2,0.8,0.4c0.2,0.2,0.4,0.4,0.6,0.6C228.8,178.9,228.9,179.3,228.8,179.8z M231.2,180.2c0.3,0.2,0.5,0.5,0.6,0.7
	c0.1,0.2,0.1,0.5,0,0.8c-0.4,0.8-0.8,1.6-1.2,2.4c-0.4,0.8-0.9,1.7-1.4,2.5c-0.3,0.5-0.5,0.9-0.8,1.4c-0.3,0.5-0.7,1.1-1.1,1.6
	c-0.8,1.2-1.7,2.5-2.6,3.7c-1.5,1.8-3,3.5-4.5,5l0,0c-0.2,0.1-0.3,0.3-0.5,0.4c-0.2,0.1-0.3,0.2-0.5,0.3c-0.9,0.5-2.1,0.5-3.4-0.4
	c-0.2-0.2-0.4-0.4-0.5-0.6c-0.5-0.7-0.7-1.5-0.6-2.3c0-0.3,0.1-0.6,0.2-0.9c0.1-0.3,0.3-0.6,0.5-0.8c0.2-0.2,0.3-0.3,0.5-0.5l0,0
	c0.7-0.5,1.5-1.1,2.2-1.6c0.7-0.6,1.4-1.1,2.1-1.7c1.1-0.9,2.1-1.9,3.1-2.8c1.4-1.3,2.7-2.6,4-4c0.4-0.4,2.2-2.8,2.8-3.3
	C230.3,180,230.7,180,231.2,180.2z M234.5,181.6c0.3,0.2,0.4,0.5,0.5,0.7c0.1,0.3,0.1,0.6,0.1,0.9c-0.1,0.3-0.2,0.5-0.3,0.8
	c-1.7,4.4-3.5,8.7-5.2,13c-0.3,0.7-0.6,1.4-0.9,2c0,0.1-0.1,0.2-0.1,0.3c-0.4,0.9-0.9,1.6-1.2,2.2c0,0.1-0.1,0.2-0.1,0.3
	c-0.4,0.8-1.4,1.4-2.1,1.6c-0.7,0.2-1.4,0.3-2.2-0.1c-0.1,0-0.2-0.1-0.3-0.1l0,0c-0.2-0.1-0.3-0.2-0.5-0.3c-1.1-0.7-1.4-1.9-1.1-3.1
	c0.1-0.5,0.4-1,0.7-1.4c0.1-0.2,0.2-0.3,0.3-0.4c1-1.3,2-2.6,3-3.9c0.1-0.1,0.2-0.3,0.3-0.4c1.4-1.7,2.7-3.6,3.9-5.4
	c1.4-2.1,2.6-4.2,3.7-6.4c0.2-0.1,0.4-0.3,0.6-0.4C233.9,181.4,234.2,181.4,234.5,181.6z M237.4,182.6c0.8,0.3,0.9,0.8,1,1.3l0,0.1
	c-0.1,0.7-0.2,1.4-0.3,2.1l-1.8,10.6c-0.4,2.1-1,4.1-1.6,6.1l0,0l0,0l0,0l0,0c-0.1,0.2-0.2,0.4-0.3,0.7c-0.1,0.3-0.3,0.5-0.4,0.7
	c-2,2.4-5.9,1.3-5.5-2.5c0-0.1,0-0.1,0.1-0.2l0,0l0,0c0.1-0.4,0.3-0.8,0.4-1.1c0.4-1.1,0.9-2.2,1.4-3.3c1.9-4.4,3.9-8.9,5.4-12.9
	c0.1-0.3,0.2-0.6,0.4-0.9c0.1-0.2,0.3-0.4,0.6-0.6c0.1-0.1,0.3-0.1,0.4-0.2C237.3,182.6,237.3,182.6,237.4,182.6z M245,183.4
	c1.1,0.4,1,1.6,1.3,2.8c0.4,2.5,0.8,5,1.3,7.4c0.2,1,0.4,2.1,0.7,3.1l1.1,5.9l0.1,0.4h0c0,0.1,0,0.2,0,0.3l0,0
	c0.2,1.7-0.6,2.9-2.4,3.2v0c-0.1,0-0.2,0-0.3,0c-0.1,0-0.2,0-0.4,0c-1.7,0-2.9-1-3.1-2.7c0-0.1,0-0.2,0-0.3c0-3.2,0-6.3,0-9.4
	c0-3,0-6,0-9l0-0.3c0.1-0.5,0.4-1,0.9-1.3c0.1-0.1,0.2-0.1,0.3-0.2c0.1,0,0.2-0.1,0.3-0.1C244.8,183.4,244.9,183.4,245,183.4z
	 M241,183.3c0,0,0.1,0,0.1,0c0.1,0,0.2,0.1,0.3,0.2c0.4,0.3,0.7,0.9,0.9,1.3l0,0.3c0,3.1,0,6-0.1,9c0,3.1-0.1,6.2-0.1,9.4
	c0,0.1,0,0.2,0,0.3c-0.1,1.5-1,2.4-2.3,2.7c-0.2,0-0.5,0.1-0.7,0.1c-0.1,0-0.2,0-0.4,0c-0.1,0-0.2,0-0.3,0v0
	c-1.9-0.4-2.6-1.7-2.4-3.5c0-0.1,0-0.2,0.1-0.3h0l1.2-6.1c0.2-1,0.5-2.1,0.7-3.1c0.5-2.5,0.9-4.9,1.3-7.4
	C239.4,184.9,239.4,183.5,241,183.3z M260.5,184.4c1.5,1.5,3,2.9,4.6,4.2c0.9,0.7,1.8,1.5,2.8,2.2c0.9,0.7,1.9,1.4,2.8,2l0,0
	c0.2,0.1,0.5,0.3,0.7,0.4c0.2,0.1,0.5,0.2,0.7,0.2c1.3,0.2,2.5-0.2,3.5-1.4l0,0c0.1-0.2,0.2-0.4,0.3-0.5c0.4-0.8,0.5-1.7,0.3-2.6
	c0-0.1-0.1-0.3-0.1-0.4c-0.2-0.4-0.5-0.8-0.8-1c-0.1-0.1-0.3-0.2-0.5-0.3c-1.6-0.9-3.1-1.6-4.5-2.3c-3.8-1.8-6.8-3.3-9.6-5.8
	c-0.5-0.4-1-0.8-1.5-1.3c-0.3-0.1-0.6-0.1-0.9,0c-0.3,0.1-0.5,0.2-0.8,0.3c-0.2,0.2-0.4,0.4-0.6,0.6c-0.2,0.3-0.3,0.8-0.2,1.2
	C257.9,181.5,259.1,183,260.5,184.4z M258.8,190.8c0.6,0.8,1.2,1.7,1.9,2.5c1.5,1.8,3,3.5,4.5,5v0l0,0c0.2,0.1,0.3,0.3,0.5,0.4
	c0.2,0.1,0.3,0.2,0.5,0.3c0.9,0.5,2.1,0.5,3.4-0.3c0.2-0.2,0.4-0.4,0.5-0.6c0.5-0.7,0.7-1.5,0.6-2.3c0-0.2,0-0.4-0.1-0.5
	c-0.1-0.4-0.3-0.7-0.6-1c-0.2-0.2-0.3-0.3-0.5-0.5l0,0c-0.7-0.5-1.5-1.1-2.2-1.6c-0.7-0.6-1.4-1.1-2.1-1.7c-1.9-1.7-3.8-3.5-5.5-5.4
	c-0.5-0.5-1-1.1-1.5-1.6c-0.4-0.4-1.8-2.4-2.6-3.1c-0.4-0.1-0.9-0.2-1.5,0.1c-0.3,0.2-0.5,0.5-0.6,0.7c-0.1,0.2-0.1,0.5,0,0.8
	c0.4,0.8,0.8,1.6,1.2,2.4c0.4,0.8,0.9,1.7,1.4,2.5c0.3,0.5,0.5,0.9,0.8,1.4c0.3,0.5,0.7,1.1,1,1.6
	C258.3,190.1,258.5,190.5,258.8,190.8z M255.8,197.1c0.3,0.6,0.5,1.1,0.8,1.7c0.5,1.1,1,2,1.4,2.7c0,0.1,0.1,0.2,0.1,0.3
	c0.4,0.8,1.4,1.4,2.1,1.6c0.7,0.2,1.4,0.3,2.2-0.1c0.1,0,0.2-0.1,0.3-0.1h0c0.2-0.1,0.3-0.2,0.5-0.3c1-0.6,1.3-1.7,1.2-2.7
	c-0.1-0.6-0.4-1.2-0.7-1.7c-0.1-0.2-0.2-0.3-0.3-0.5c-1-1.3-2-2.6-3-3.9c-0.7-0.9-1.4-1.9-2.1-2.9c-0.7-1-1.4-2-2.1-3.1
	c-1.3-2.1-2.6-4.2-3.6-6.4c0,0-0.1,0-0.1-0.1c-0.1,0-0.2-0.1-0.3-0.1c-0.3-0.1-0.7-0.1-1.2,0.1c-0.3,0.2-0.4,0.5-0.5,0.7
	c-0.1,0.3-0.1,0.6-0.1,0.9c0.1,0.3,0.2,0.5,0.3,0.8C252.3,188.5,254.1,192.8,255.8,197.1L255.8,197.1z M289.6,162
	c1.9,2.4,3.8,2.7,4.7,1.6c2.9-0.7,4.9,1.7,4.8,5C302.9,157.6,289.1,159.1,289.6,162z M256,63.5c0.3-1.4,0.8-2.7,2.1-3.8
	c1.3,0.9,2,2.2,2.7,3.8C259.5,63.2,257.8,63.2,256,63.5z M262.7,85.2c0.3-2.1,1.5-5.6,4.5-5C266.7,83.7,266.1,84.6,262.7,85.2z
	 M276.1,79c-0.1-4.2-2.9-6.3-6.4-5.4c0.8-1.3,1.4-1.8,1.7-3.5c4.5,1.2,6.3,4.1,5.5,7.4C276.8,77.8,276.5,78.6,276.1,79z M268,78.1
	c0.2-1.3,0.3-3,1.2-3.4c2.8-1.7,6.5,1.1,5.9,4.4C273.4,76.1,270.7,75.3,268,78.1z M266.2,145.2c-6.3-0.8-6.4,4.1-4.3,7.2
	c2.5,4.2,5,8.7,7.1,12.4c-1,0.3-1.3-0.5-2.4-1.1c-2-0.7-3-1.1-4.6,1.5c1.3,1.5,1.6,4.1-0.5,4.5c1.3,4.6,6.3,3.1,6.9,0.3
	c0.9-0.2,1-0.1,1.3-0.5c0.1,1.2,1.8,1.9,3.1,0.7c0.9,1.5,3.2,1,3.9-0.2c1,1.6,3.1,2.3,5.4,1.2c0.4,1.9,2.3,3.4,4.1,3.5
	c1.8,0.1,3.7-0.6,3.6-2.1c-1.3-1.1-0.6-3.2-0.2-3.5c-1.1-0.2-2.1-0.6-2.8-0.9c-3.6,0.9-9.2,0-9.9-1.3c0.1,0,0.2-0.1,0.3-0.1
	c2,0.7,4.1,1.6,9.9,0.5c2.6,1.9,8.5,1.5,7.2-1.9c0-0.1-0.1-0.3-0.2-0.3c-2.5,0.3-4.1-1.4-4.8-2.9c-3,5.2-9,4.5-12.7,3
	c0-0.2-0.1-0.5,0.1-0.4c1,0.2,3.8,1.5,6.7,0.8c2.7-0.9,3.6-1.2,5.2-3.2c0.2,0,0.9-2.7,0.2-3.2c-0.9,2.1-4.6,2.4-5-0.4
	c-0.1-1.6,0.5-2.3,1.1-3l-0.1-0.1c-3.2,1.5-6.1,4.5-6.9,6.8c-0.7,1.4-2.7,0.6-3.4-0.7c-3.4-5.4-5.9-9.3-7.6-15.1
	C266.5,145.9,266.4,145.8,266.2,145.2z M257.9,173.6c0.6,0.4,1.3,0.5,2.1,0.4c-2.9-2-2.3-4.4-0.8-4.8c0.5-0.2,1-0.3,1.6,0.1
	c1.9-0.9,1.4-2.4,0.5-3.7C256,163.7,253.9,171,257.9,173.6z M286.3,155c-0.8,0.3-2.2,1.7-2,3.5c0.8,2.8,4,0.9,3.7-0.2
	c3.4-1.4,4.9,0.3,5.5,1.4C294.9,155.7,289.1,154,286.3,155z M291.5,178.1c3.4-3.5,1.9-6.8-1.3-6.2c-0.6-0.7-1.1-1.1-0.2-2.8
	c1.4,0.3,2.6,0,3.3,0C297.1,170.9,296.6,178.6,291.5,178.1z M261,152.4c-2.6-3.9-1.3-9.4,5.2-8c-1.3-6.5,0.7-15.7-0.1-18.9
	c-1.9-6.4-4.6-6.9-7.3-7.3c-4.7-0.3-6.7,3.3-7.1,8.4c-0.5,6.4,1.3,14.9,3.3,20.7C255.8,149.8,258,152.5,261,152.4z M307,140.2
	c2.2,4.2,5.1,7.4,7.9,7.8c-2.4-17.8-6.6-35.5-11.3-46.9l0.1,0c-0.6-0.3-1.1-1-1.6-1.9c-1.1,2.2-2.2,3-3.3,2.8
	c1.9,5.7,7.8,23.1,8.2,33.7C307.1,137.2,307,138.7,307,140.2z M315.2,149.5c-2.9,0.5-6.8-3.1-8.2-7.3c-0.1,8.7,1.6,17,10,20.5
	C316.1,157,315.7,153.1,315.2,149.5z M319,126.1c1.7,2.7,6,7.4,7.9,7.5c-1.4-5.9-6-16.1-9.2-28.7l-3.9-6.3c-0.9,1.9-2.1,2.8-3.2,2.9
	c1.6,4.9,4.1,12.4,6.7,20.4C317.7,122.9,317.8,123.7,319,126.1z M327.3,134.6c-2.3,0.6-5.6-2.9-8.3-7.3c2.6,7.4,4.7,14.2,6.4,17.6
	c1.7,1.7,4.3,3.5,6.7,2C330.5,142.5,328.8,138.4,327.3,134.6z M268.6,98.3c1.4,2.5,3.3,3.2,5.3,2.3c-0.7-0.7-1.2-1.8-1.6-3.1
	C271,97.9,269.8,98.2,268.6,98.3z M272.7,97.3c1.7,3.1,3.9,3.7,6.3,2.2c-0.9-1-1.6-2.6-2.1-4.6C275.6,96,274.2,96.8,272.7,97.3z
	 M279.1,99.6c-1.1,1.7-2.3,2.3-3.5,2.1c2,3.8,5.6,9.6,5.6,13.9c1.2,1,2.5,1.5,3.9,1c0.9-3.7-4.1-13.9-5.3-16.4
	C279.6,100,279.3,99.8,279.1,99.6z M274.7,101.4c-0.2-0.1-0.4-0.2-0.5-0.4c-1,1.2-2.1,1.6-3.2,1.3c1.1,3.4,4,7.4,5.2,11.9
	c0.8,1.3,1.9,2.1,4,1.4C280.6,110.9,277.5,106.4,274.7,101.4z M286.6,80.9c2,4,4.4,4.8,6.5,2c-1-1.3-1.9-3.4-2.5-6
	C289,78,287.7,79.3,286.6,80.9z M290.9,76.6c2.1,6.2,4.9,8.1,7.3,5.5c-1.1-1.7-2.2-4.3-2.8-7.4c0-0.1,0-0.1,0-0.1
	C293.7,75.1,292.2,75.8,290.9,76.6z M295.8,74.4c2.5,10.7,7.3,10.5,10,2.4c-0.3-0.2-0.6-0.5-0.9-0.7
	C302.5,74.7,299.1,73.3,295.8,74.4z M306,76.9c-0.3,1.8-1.3,5.3-2.3,5.8c2,5.1,5,4.1,7.1-1.2C309.4,79.8,307.8,78.2,306,76.9z
	 M310.9,81.5c-0.4,2.4-1.6,4.8-2.8,5.2c-0.2,0.2-0.2,0.2-0.4,0.3c0,0.1,0,0.3,0.1,0.4c1.3,4.6,4.3,4.8,7.3,0.7
	C314,85.8,312.6,83.6,310.9,81.5z M315.2,88.1c-1.3,3.3-3.8,4.3-5.2,4.1c2.8,3.3,5.7,3.5,8.4,1.3C317.4,91.9,316,89.8,315.2,88.1z
	 M318.4,93.6c-1.4,3-3.7,3.5-5.7,2.3c3.1,3.9,5.6,7.7,6.3,8.2c3,2.3,10.3,2.1,11.5-0.3c-2-0.2-6.6-2-9.1-5.8
	C320.4,96.7,319.4,95.2,318.4,93.6z M311.6,95.2L311.6,95.2L311.6,95.2c-1.7,1.6-3.5,1.1-4.8-0.7c-0.1,0.1-0.2,0.2-0.3,0.2
	c1.3,5.8,4.1,6.8,7.2,3.7l-2.3-3.2L311.6,95.2z M309.9,101.4c-0.9-0.2-1.8-1-2.4-2.3c-1,1.8-2.1,2.5-3.1,2.3
	c5.5,12,9.7,31.1,14.1,62c2,9.4,3.1,39.2,15.1,34.1c-2.4-6.3-4.7-17.9-6-26.1c-0.6-0.8-1.2-1.8-1.8-3.6c-4.6-12.9-8.6-39.3-11.7-53
	c0.7,1.5,1.9,5.9,2.6,7.9c2.6,15.4,7.5,37.9,10.2,44.6c1.5,3.6,5.1,7.1,9.2,6C325.5,153.4,314.3,113.9,309.9,101.4z M298.2,101.7
	c-0.5-0.3-1-0.9-1.5-1.7c-1.4,1.9-2.9,2.3-4.1,1.6c2.3,7.9,4.4,16.3,5.2,29.1c1.1,6,5.4,6.9,8,8.5
	C306,127.6,301.7,113.5,298.2,101.7z M291.7,100.8c-0.2-0.3-0.4-0.5-0.6-0.9c-1.2,2.2-2.7,2.6-4.2,2.1c2.4,6.6,5.2,13.6,5,21
	c-0.1,2.8,0.5,4.7,4.7,5.6c0-0.1,0.1-0.1,0.2-0.2c-0.9-10.9-2.7-19.5-5-27.2C291.7,100.6,291.7,100.8,291.7,100.8z M285.5,100.7
	c-0.3-0.6-0.5-0.8-0.9-1.7c-1.2,1.9-2.6,2.4-3.8,2.1c1.5,3.6,5.3,10.7,5.3,14.9c0,2.5,3.2,5.7,4.9,6.2
	C291.7,117.4,287.6,104.8,285.5,100.7z M277.3,94.6c1.7,4.9,4.4,6.4,7.3,4c-0.1-0.5-0.4-1.7-0.5-2.3c-2,1-3.9-0.7-4.8-3.7
	C278.6,93.4,277.9,94,277.3,94.6z M279.6,92.2c1.5,2.7,3.4,3.5,5.4,2.6c-0.7-1.2-1.3-2.8-1.4-4.8c-0.5-0.5-0.9-1.2-1.3-2
	c-0.6,1-1.2,2.1-1.8,3.2C280.1,91.6,279.9,91.9,279.6,92.2z M282.7,87.1c2.2,3.8,4.8,3.9,6.9,0.1c-0.3-0.6-0.6-1.2-0.9-1.9h0
	c-1-0.7-1.9-2-2.6-3.8C284.9,83.3,283.8,85.1,282.7,87.1z M303.1,83.3c-0.7,0.7-1.4,1-2.1,0.9c1.9,4.5,4.1,5.7,6.1,3.5l-0.1-0.5l0,0
	C305.6,87.4,304.2,86,303.1,83.3z M300.3,84.1c-0.6-0.3-1.2-0.8-1.8-1.5c-0.9,1.5-1.9,2.1-2.9,2.1c1.8,3,3.7,3.7,5.5,2
	C300.9,85.9,300.6,85,300.3,84.1z M294.7,84.3c-0.5-0.2-0.9-0.6-1.4-1.1c-1,2.1-2.2,2.9-3.4,2.7c1.5,2.3,3,3.2,4.6,2.7l0,0l0,0
	c0.5-0.2,1.1-0.5,1.6-1c0,0,0.2-0.1,0.3-0.2C295.7,86.6,295.2,85.6,294.7,84.3z M306.3,94.9c-1.7,1.1-3.5,0.6-4.9-1
	c-0.1,0.2-0.3,0.4-0.5,0.5c1.4,5.4,3.6,6.9,6.3,4.3C306.9,97.6,306.5,96.3,306.3,94.9z M300.8,94.6c-1.7,1.5-3.6,0.8-4.8-1.3
	c-0.2,0.4-0.5,0.7-0.7,1c1.7,6.1,4.2,7.6,6.9,4.8C301.5,98,301,96.4,300.8,94.6z M295.1,94.4c-1.5,1.6-3.2,1.5-4.4,0.1
	c-0.2,0.3-0.4,0.6-0.6,0.9c1.2,5,3.6,6.4,6.5,4.6C295.9,98.6,295.4,96.7,295.1,94.4z M290,95.5c-1.6,1.9-3.4,1.6-4.7-0.2
	c-0.4,0.4-0.8,0.8-1.2,1c0.2,0.5,0.4,1,0.6,1.5l0.1,0l0,0.1c1.7,3.3,3.9,3.8,6.3,2.1C290.5,98.8,290.1,97.3,290,95.5z M283.6,90.1
	c0.7,2,1.5,3.4,2.4,4.2c0,0,0.1,0,0.1-0.1c0,0,0,0.1-0.1,0.1c1.4,1.5,2.9,1.4,4.6,0.1c-1-1.1-1.7-2.8-1.9-5
	C287.2,91.9,285.2,91.9,283.6,90.1z M288.7,89.4c1.7,4.7,4.3,5.7,7.2,3.9c-0.6-0.9-1-2.1-1.3-3.5c-1.7,0.9-3.5-0.1-4.9-2.4
	C289.4,88.2,289.1,88.8,288.7,89.4z M294.8,89.6c1.7,4,4,5.1,6.5,4c-0.9-1.2-1.5-2.8-1.8-4.8c-1,0.3-2-0.2-2.9-1.2
	c-0.1,0.1-0.3,0.2-0.2,0.3C295.9,88.7,295.4,89.3,294.8,89.6z M299.6,88.8c1.7,4.4,4.2,6.2,6.8,4.9c-0.5-0.9-0.9-2.1-1.1-3.4
	c-1.3,0.3-2.7-0.8-3.8-3.1C300.9,88.1,300.2,88.6,299.6,88.8z M305.5,90.2c1.4,3.6,3.3,5.3,5.3,4.2c-0.5-0.6-1-1.4-1.4-2.3
	c-1-0.5-1.8-1.7-2.2-3.5C306.7,89.4,306.1,90,305.5,90.2z M311,94.5C311,94.6,311.1,94.6,311,94.5L311,94.5z M311.4,94.9
	C311.4,95,311.5,95,311.4,94.9L311.4,94.9z M250.1,201.3c0.1,0.5,0.3,0.9,0.4,1.4h0l0,0v0c0.1,0.3,0.2,0.5,0.3,0.8
	c0.1,0.3,0.3,0.5,0.4,0.7c2,2.4,5.8,1.3,5.5-2.3c0-0.1-0.1-0.2-0.1-0.2v0l0,0c-0.4-1.2-0.9-2.4-1.4-3.7c-0.1-0.3-0.3-0.6-0.4-0.9
	c-1.9-4.5-3.8-8.9-5.4-12.9c-0.1-0.3-0.2-0.6-0.3-0.9c-0.1-0.2-0.3-0.4-0.6-0.6c-0.2-0.1-0.4-0.1-0.7,0c-0.8,0.3-0.9,0.8-1,1.3
	l0,0.1c0.1,0.7,0.2,1.4,0.3,2.1l1.8,10.6C249.3,198.3,249.7,199.9,250.1,201.3z"/>
<path class="st2" d="M249.4,163.6c0.7,4.4,1.3,8.7,2,13.1c0.1,0.6,0.8,0.6,0.7-0.1c-0.7-4.4-1.5-8.7-2.2-13
	C249.8,163,249.3,163.2,249.4,163.6 M245.9,164.1c0.3,4.4,0.6,8.7,1,13.2c0,0.7,0.8,0.6,0.7-0.1c-0.3-4.4-0.8-8.7-1.2-13.2
	C246.3,163.5,245.9,163.7,245.9,164.1z M242.5,177.8c-0.2,0-0.4-0.2-0.3-0.5c0-4.4,0.2-8.8,0.3-13.2c0-0.3,0.1-0.4,0.2-0.4
	c0.1,0,0.2,0.1,0.2,0.4c-0.1,4.4,0,8.8-0.1,13.2C242.9,177.6,242.7,177.8,242.5,177.8z M236,163.5c-0.8,4.4-1.5,8.6-2.3,13
	c-0.1,0.6-0.9,0.5-0.7-0.1c0.8-4.4,1.7-8.6,2.5-13C235.6,162.8,236.1,163,236,163.5z M239.5,164c-0.4,4.4-0.8,8.7-1.3,13.1
	c-0.1,0.6-0.8,0.6-0.7-0.1c0.4-4.4,1.1-8.7,1.5-13.1C239,163.4,239.5,163.6,239.5,164z M245.1,170.7c0-2.2-0.1-4.4-0.2-6.7
	c0-0.5,0.2-0.9,0.5-1.1c0.2-0.1,0.3-0.2,0.5-0.3c0.2,0,0.4,0,0.6,0.1c0.3,0.1,0.5,0.3,0.7,0.6c0.2,0.3,0.2,0.4,0.2,0.7
	c0.3,2.2,0.5,4.3,0.8,6.3c0.3,2.3,0.6,4.5,0.9,6.8c0,1.1-0.5,2.7-1.7,2.7c-1.2,0.1-2.1-1.5-2.2-2.6
	C245.2,175,245.1,172.9,245.1,170.7z M241.2,164.3c-0.2,2.1-0.3,4.2-0.3,6.4c-0.1,2.3-0.2,4.6-0.4,6.9l0,0c0,1.2,0.7,2.9,1.8,2.9
	c0,0,0.1,0,0.1,0h0h0h0h0h0h0h0h0h0h0h0h0l0,0h0h0h0h0h0h0h0l0,0h0h0h0l0,0h0h0h0h0h0v0h0l0,0h0l0,0h0v0h0h0h0h0l0,0h0h0l0,0l0,0h0
	h0h0h0l0,0h0h0h0l0,0h0h0h0l0,0h0h0h0h0h0h0l0,0h0l0,0h0h0l0,0c0,0,0.1,0,0.1,0c1.2,0,1.7-1.7,1.7-2.9l0,0c-0.2-2.3-0.2-4.6-0.2-6.9
	c0-2.1-0.1-4.2-0.2-6.4c0-0.4,0-0.6-0.3-0.9c-0.1-0.2-0.3-0.4-0.5-0.5c-0.2-0.1-0.3-0.2-0.5-0.2l0,0c0,0-0.1,0-0.1,0h0l0,0h0h0l0,0
	h0l0,0h0l0,0l0,0h0h0h0l0,0h0h0h0v0h0h0l0,0h0v0c0,0,0,0-0.1,0l0,0c-0.2,0-0.4,0.1-0.5,0.2c-0.2,0.1-0.3,0.3-0.5,0.5
	C241.3,163.6,241.3,163.9,241.2,164.3z M240.1,170.6c0.1-2.2,0.2-4.4,0.3-6.7c0-0.5-0.2-0.9-0.4-1.1c-0.1-0.1-0.3-0.2-0.5-0.3
	c-0.2,0-0.4,0-0.6,0.1c-0.3,0.1-0.5,0.3-0.7,0.6c-0.2,0.2-0.2,0.4-0.3,0.7c-0.3,2.2-0.6,4.2-1,6.3c-0.4,2.3-0.7,4.5-1.1,6.8
	c0,1.1,0.7,2.7,1.8,2.8c1.2,0.1,1.9-1.5,2.1-2.6C239.9,175,240,172.8,240.1,170.6z M234.6,163l-3.2,12.9h0c-0.3,1.1,0.4,2,1.5,2.4
	c1.1,0.3,2-0.4,2.3-1.4c0.6-4.4,1.4-8.8,2-13.2c0.1-0.6,0-0.8-0.4-1.3c-0.2-0.2-0.4-0.4-0.7-0.4c-0.2-0.1-0.5,0-0.8,0.1
	C234.8,162.1,234.7,162.5,234.6,163z M250.8,163.2l2.9,13h0c0.1,0.7-0.4,1.8-1.4,2.1c-1.2,0.3-2-0.2-2.4-1.3
	c-0.5-4.4-1.1-8.9-1.7-13.3c-0.1-0.6,0-0.8,0.4-1.3c0.2-0.2,0.4-0.3,0.7-0.4c0.2-0.1,0.5,0,0.8,0.1
	C250.6,162.3,250.7,162.7,250.8,163.2z M253.2,147.2c-2.3-7.7-3.2-15.9-3-20.4c0.3-5.2,2.7-10.6,9.1-10c2.9,0.3,6.6,2.4,7.8,8
	c2.7-4.6,4.3-8.7,2.3-14.3c1.5,1.5,5.3,4.3,5.6,2.9c-0.7-3.8-2.2-4.4-4.7-11.4c-1-0.6-1.8-1.9-2.3-3.6c-3.7,0.2-8.3-2-10.6-3.5
	c-4.3,9.8-24.5,9.6-28.7-0.2c-2.3,1.4-7,3.6-10.7,3.4c-0.5,1.7-1.4,3-2.4,3.6c-2.5,7-4.1,7.5-4.8,11.4c0.2,1.4,4.1-1.4,5.6-2.9
	c-2,5.6-0.4,9.7,2.2,14.3c1.2-5.6,5-7.7,7.9-8c6.3-0.5,8.8,4.9,9,10.1c0.2,4.5-0.8,12.7-3.1,20.4
	C236.5,158.1,249.1,158.3,253.2,147.2z M240.4,185.1c0-0.3,0.3-0.2,0.3,0c0.1,5.7-0.1,11.9-0.6,18.6c-0.2,0.7-0.5,1.1-1.3,0.9
	c-0.7-0.3-0.9-0.9-0.8-1.3C239,198,239.9,192,240.4,185.1z M236.6,184.2c0.1-0.2,0.3-0.1,0.3,0.1c-1.1,5.6-2.6,11.6-4.5,18
	c-0.4,0.7-0.8,0.9-1.5,0.6c-0.6-0.5-0.7-1-0.5-1.5C232.5,196.5,234.6,190.8,236.6,184.2z M233.3,183c0.1-0.2,0.4-0.1,0.3,0.1
	c-1.7,5.6-4.5,11.3-8.3,17.2c-0.5,0.6-1,0.8-1.7,0.3c-0.5-0.6-0.5-1.2-0.2-1.6C227.2,194.4,230.8,189.1,233.3,183z M230.1,181.6
	c0.2-0.2,0.4,0,0.3,0.2c-3.1,5.3-7.2,10.3-11.8,15c-0.6,0.5-1.1,0.5-1.7-0.1c-0.4-0.7-0.2-1.3,0.1-1.6
	C221.8,191.3,226.6,186.9,230.1,181.6z M227.3,178.9c0.2-0.2,0.4,0.1,0.2,0.2c-4,4.5-8.9,8.5-14.7,12c-0.7,0.3-1.4,0.2-1.8-0.5
	c-0.2-0.8,0.1-1.4,0.5-1.6C216.9,186.6,222.6,183.5,227.3,178.9z M231.9,148.8c-0.6,5.5-1.4,6.9,1,12.4l-0.1,0.2
	c-0.4,1.3-0.8,2.7-1.1,4.1c-0.9,4.2-2,8.1-4.8,11.3c0.3,0,0.7,0,1,0.1c0.3,0.1,0.7,0.3,1,0.5c0.3,0.2,0.6,0.5,0.8,0.8
	c0.2,0.4,0.3,0.8,0.3,1.3c0.5-0.1,1.2-0.3,2,0.2l0.1,0c0.4,0.3,0.7,0.7,0.8,1.1c0,0.1,0.1,0.2,0.1,0.3c0.1,0,0.1,0,0.2-0.1
	c0.1,0,0.2-0.1,0.3-0.1c0,0,0.1,0,0.1,0c0.5-0.1,1.1-0.1,1.7,0.2l0.1,0c0.4,0.3,0.6,0.7,0.8,1.1l0,0.1c0.3-0.2,0.6-0.3,1-0.3
	c0.3,0,0.6-0.1,0.9,0l0.1,0c0.8,0.3,1.1,0.7,1.3,1.2c0.3-0.2,0.8-0.4,1.5-0.5l0.1,0l0,0l0,0c0,0,0.1,0,0.1,0c0.1,0,0.1,0,0.2,0
	l0.1,0l0,0l0,0c0.2,0,0.3,0.1,0.4,0.2c0.1,0.1,0.3,0.2,0.4,0.2c0.2,0.2,0.4,0.4,0.5,0.6c0.2-0.2,0.4-0.5,0.6-0.6
	c0.1-0.1,0.2-0.2,0.4-0.2c0.1-0.1,0.3-0.1,0.4-0.2l0,0l0,0l0.1,0c0.4,0,0.7,0.1,0.9,0.2c0.4,0.1,0.7,0.2,0.9,0.4
	c0.2-0.5,0.5-0.9,1.3-1.2l0.1,0c0.6-0.1,1.1,0,1.5,0.2c0.1,0,0.3,0.1,0.4,0.2c0-0.1,0-0.1,0-0.2c0.1-0.4,0.3-0.8,0.8-1.1l0.1,0
	c0.6-0.3,1.2-0.3,1.7-0.2c0.2,0.1,0.4,0.2,0.6,0.3c0-0.1,0-0.2,0.1-0.4c0.1-0.4,0.4-0.7,0.8-1.1l0.1,0c0.8-0.5,1.5-0.3,2-0.2
	c0-0.5,0.1-0.9,0.3-1.3c0.2-0.3,0.5-0.6,0.8-0.8c0.3-0.2,0.6-0.4,1-0.5c0.3-0.1,0.6-0.1,0.9-0.1c-2.7-3.2-3.8-7-4.6-11.2
	c-0.3-1.4-0.7-2.8-1.1-4.1l-0.1-0.2c2.5-5.5,1.7-6.9,1.1-12.4C250.6,159.9,234.9,159.7,231.9,148.8z M195.9,161.6
	c-1.9,2.4-3.8,2.7-4.8,1.5c-2.9-0.7-4.9,1.6-4.8,5C182.7,157.2,196.5,158.7,195.9,161.6z M231.4,160.8c0.2,0.2,0.3,0.3,0.4,0.4
	c-0.7,2.3-1,4.3-1.7,6.8c-0.3-2.5-2.8-4.4-6-3.7c-1.3-3.1-4.4-2.5-5.3-1.6c1.6-3.1,3.4-5.6,5.5-9.4c2.8,0.3,4.9-2.1,6-2.8
	C229.9,154.3,229.3,157.7,231.4,160.8z M230.6,95.1c-1.2-1.3-1.1-3.7,0.7-3.5c0.4,0,0.7,0.1,1,0.4c7.7,7.5,13.8,7.2,21.6,0.1
	c0.3-0.3,0.5-0.4,1-0.4c1.8-0.2,1.9,2.1,0.7,3.5C249.1,102.4,236.8,102.2,230.6,95.1z M243.7,95.9c-0.1-3-0.5-6.2-0.2-10.1
	c0.2-1.6,0.4-3.2,0.7-4.8c0.2-1.2,3.1-7.6,4.9-8c3.8-1.2,4.4-4,4.5-5.7c-0.8,1.5-2.6,4.1-4.4,4.4c-2.6-1.9-3.5-4.8-3.4-7.7
	c4-1.6,7,0.9,8.7,1.7c3.3-1,6.8-2.1,10.1,0.8c5.6-0.6,7.3,2.3,3.9,6.8c0,0-0.5,0.6-0.5,0.7c-0.5,0.2-5,1.5-4.8,2.4
	c2.3-0.9,3.2-1.1,4.4-1.2c-0.5,1.4-0.5,2.6-0.7,3.9c-5.4,0.5-4.3,6.1-6.4,7.4c-4.6,1.6-7-2.3-6.5-6.3c-0.1,0.1-0.3,0.5-0.4,0.8
	c-0.8,5.1,1.5,5.9,3.2,6.5c-1.3,0.3-2.2,1.2-2.2,2.9c-0.7,0-1.3,0.3-1.8,0.8C251.7,92.3,247.4,95.7,243.7,95.9z M230.2,63.3
	c-0.3-1.4-0.7-2.7-2.1-3.9c-1.3,0.9-2.1,2.2-2.8,3.8C226.7,63,228.4,63,230.2,63.3z M241.8,81c-0.2-1.2-3.1-7.6-4.9-8
	c-3.8-1.2-4.4-4.1-4.4-5.7c0.8,1.5,2.6,4.1,4.4,4.4c2.6-1.9,3.5-4.8,3.5-7.7c-4-1.6-7,0.9-8.7,1.6c-3.3-1-6.8-2.2-10.1,0.8
	c-5.6-0.6-7.4,2.2-4,6.7c0,0,0.5,0.6,0.5,0.7c0.5,0.2,4.9,1.5,4.8,2.4c-2.3-0.9-3.2-1.1-4.4-1.2c0.5,1.4,0.5,2.6,0.7,3.9
	c5.4,0.5,4.2,6.1,6.4,7.5c4.6,1.6,7-2.3,6.5-6.2c0.1,0.1,0.3,0.5,0.3,0.8c0.8,5.1-1.5,5.9-3.3,6.5c1.3,0.3,2.2,1.2,2.2,2.9
	c0.7,0,1.3,0.3,1.8,0.8c1.2,1.3,5.7,5.2,9.4,4.9c0.2-3.2,0.2-6.1,0.1-10C242.3,84.2,242.1,82.6,241.8,81z M222.5,67.7
	c-1.6-0.1-3,1.1-3.1,2.7c-0.1,1.6,1.1,3,2.7,3.1c1.6,0.1,3-1.1,3.1-2.7C225.3,69.2,224.1,67.8,222.5,67.7z M222.4,69
	c-0.9-0.1-1.7,0.6-1.8,1.6c-0.1,0.9,0.6,1.7,1.6,1.8c0.9,0.1,1.7-0.6,1.7-1.6C224,69.8,223.3,69,222.4,69z M222.4,69.8
	c-0.5,0-0.8,0.3-0.9,0.8c0,0.5,0.3,0.8,0.8,0.9c0.5,0,0.8-0.3,0.9-0.8C223.2,70.2,222.8,69.8,222.4,69.8z M222.5,68.3
	c-1.3-0.1-2.4,0.9-2.5,2.2c-0.1,1.3,0.9,2.4,2.2,2.5c1.3,0.1,2.4-0.9,2.5-2.2C224.8,69.5,223.8,68.4,222.5,68.3z M238.6,65.3
	c0,1.4-0.7,2.9-2,3.7c-0.5-0.1-0.9-0.9-1.2-1.1c-0.5-0.4-0.6-0.9-0.9-1.4C235.7,65.3,236.9,65.3,238.6,65.3z M223.3,85
	c-0.3-2.1-1.5-5.7-4.5-5C219.3,83.4,220,84.4,223.3,85z M210,78.7c0.1-4.2,3-6.3,6.5-5.4c-0.8-1.3-1.3-1.8-1.7-3.5
	c-4.6,1.2-6.3,4.1-5.5,7.4C209.3,77.6,209.6,78.3,210,78.7z M218,77.9c-0.1-1.3-0.3-3-1.2-3.4c-2.8-1.7-6.5,1.1-5.9,4.3
	C212.7,75.9,215.5,75,218,77.9z M219.4,145c6.3-0.8,6.4,4.1,4.3,7.2c-2.5,4.2-5,8.7-7.1,12.3c1,0.3,1.3-0.5,2.4-1.1
	c2-0.7,3-1.1,4.6,1.6c-1.3,1.5-1.6,4.1,0.5,4.5c-1.3,4.6-6.3,3-6.9,0.2c-0.9-0.2-1-0.1-1.3-0.5c-0.1,1.2-1.8,1.9-3.1,0.7
	c-0.9,1.5-3.2,0.9-3.9-0.3c-1,1.6-3.2,2.2-5.4,1.2c-0.4,1.9-2.3,3.4-4.1,3.4c-1.8,0-3.7-0.6-3.6-2.1c1.3-1.1,0.6-3.2,0.2-3.5
	c1.1-0.2,2.1-0.6,2.8-0.9c3.6,0.9,9.2,0.1,9.9-1.2c-0.1,0-0.2-0.1-0.3-0.1c-2,0.7-4.1,1.6-9.9,0.5c-2.6,1.9-8.6,1.5-7.2-1.9
	c0-0.1,0.1-0.3,0.2-0.3c2.5,0.3,4.1-1.3,4.9-2.9c3,5.2,9,4.5,12.7,3.1c0-0.2,0.1-0.5-0.1-0.4c-1,0.2-3.8,1.5-6.7,0.7
	c-2.7-0.9-3.6-1.2-5.2-3.2c-0.2,0-0.9-2.7-0.2-3.2c0.9,2.1,4.5,2.4,5-0.4c0.1-1.6-0.5-2.3-1.1-3l0.1-0.1c3.2,1.5,6.1,4.6,6.9,6.8
	c0.7,1.4,2.7,0.6,3.4-0.7c3.4-5.3,5.9-9.2,7.7-15.1C219.1,145.7,219.3,145.6,219.4,145z M193.6,158.7c0.7-0.6,1.6-0.5,2.6-0.3
	c-0.4,0.6-0.4,1.1-0.1,1.7C195.3,159.1,194.3,158.9,193.6,158.7z M227.6,173.4c-0.6,0.4-1.3,0.5-2.1,0.4c2.9-2,2.3-4.4,0.8-4.8
	c-0.5-0.2-1-0.3-1.6,0.1c-1.9-1-1.4-2.4-0.5-3.7C229.5,163.5,231.7,170.9,227.6,173.4z M199.4,154.6c0.8,0.3,2.2,1.7,1.9,3.6
	c-0.8,2.8-4,0.9-3.7-0.2c-3.4-1.5-4.9,0.3-5.5,1.3C190.7,155.3,196.5,153.6,199.4,154.6z M194,177.8c-3.3-3.5-1.9-6.8,1.3-6.2
	c0.6-0.7,1.1-1.1,0.2-2.8c-1.4,0.3-2.6,0-3.3,0C188.4,170.5,188.8,178.2,194,177.8z M224.6,152.2c2.6-3.8,1.4-9.4-5.2-8.1
	c1.3-6.5-0.6-15.7,0.2-18.9c1.9-6.4,4.6-6.9,7.4-7.3c4.7-0.2,6.7,3.4,7.1,8.4c0.5,6.4-1.4,14.9-3.4,20.6
	C229.9,149.7,227.7,152.3,224.6,152.2z M178.7,139.8c-2.2,4.2-5.1,7.3-8,7.8c2.5-17.8,6.8-35.5,11.6-46.9l-0.1,0
	c0.6-0.3,1.1-1,1.6-1.9c1,2.2,2.2,3,3.3,2.8c-1.9,5.7-8,23.1-8.4,33.6C178.7,136.7,178.7,138.3,178.7,139.8z M166.8,125.6
	c-1.8,2.6-6,7.4-8,7.4c1.5-5.9,6.1-16,9.3-28.7l4-6.3c0.9,1.9,2.1,2.8,3.2,2.9c-1.6,4.9-4.2,12.4-6.9,20.4
	C168.1,122.4,168,123.2,166.8,125.6z M158.5,134c2.3,0.6,5.6-2.9,8.3-7.2c-2.6,7.4-4.8,14.2-6.5,17.5c-1.7,1.7-4.3,3.5-6.7,2
	C155.2,141.9,156.9,137.9,158.5,134z M217.4,98.1c-1.5,2.5-3.3,3.2-5.3,2.3c0.7-0.7,1.2-1.8,1.6-3.1
	C214.9,97.7,216.2,97.9,217.4,98.1z M213.3,97.1c-1.7,3.1-3.9,3.7-6.3,2.1c0.9-1,1.7-2.6,2.1-4.6C210.4,95.7,211.8,96.5,213.3,97.1z
	 M206.9,99.3c1.1,1.7,2.3,2.4,3.5,2.2c-2,3.8-5.7,9.6-5.7,13.9c-1.2,1-2.5,1.4-4,1c-0.9-3.7,4.1-13.9,5.4-16.4
	C206.4,99.8,206.6,99.5,206.9,99.3z M211.2,101.1c0.2-0.1,0.4-0.2,0.5-0.4c1,1.2,2.1,1.6,3.2,1.3c-1.1,3.3-4.1,7.4-5.2,11.8
	c-0.8,1.3-2,2.1-4,1.3C205.3,110.6,208.5,106.1,211.2,101.1z M199.5,80.5c-2.1,4-4.4,4.7-6.5,2c1-1.3,1.9-3.4,2.5-6
	C197.1,77.6,198.4,79,199.5,80.5z M190.3,74c-2.6,10.7-7.3,10.5-10.1,2.4c0.3-0.2,0.6-0.5,0.9-0.7c2.2-1.3,5.3-2.5,8.3-1.9l0,0l0,0
	h0l0.1,0l0,0l0,0l0,0l0,0l0.1,0h0l0,0l0,0l0,0l0,0l0.1,0l0,0l0.1,0l0,0l0,0l0,0l0,0L190.3,74L190.3,74L190.3,74z M180.1,76.4
	c0.3,1.8,1.3,5.3,2.3,5.8c-2.1,5.1-5,4.1-7.1-1.3C176.7,79.3,178.3,77.8,180.1,76.4z M175.2,81c0.4,2.4,1.6,4.8,2.7,5.2
	c0.2,0.2,0.2,0.2,0.4,0.3c0,0.1,0,0.3-0.1,0.4c-1.3,4.6-4.3,4.8-7.3,0.7C172,85.3,173.4,83.1,175.2,81z M170.8,87.6
	c1.3,3.3,3.8,4.4,5.2,4.1c-2.8,3.3-5.7,3.4-8.4,1.3C168.6,91.4,170,89.3,170.8,87.6z M167.6,93c1.4,3,3.7,3.5,5.7,2.4
	c-3.1,3.9-5.7,7.7-6.4,8.2c-3,2.3-10.3,2-11.5-0.4c2-0.2,6.6-1.9,9.1-5.7C165.6,96.1,166.6,94.7,167.6,93z M174.4,94.7L174.4,94.7
	L174.4,94.7c1.7,1.6,3.5,1.1,4.8-0.7c0.1,0.1,0.2,0.2,0.3,0.2c-1.4,5.7-4.2,6.8-7.2,3.7l2.3-3.2L174.4,94.7z M176.1,100.9
	c0.9-0.2,1.8-1,2.4-2.3c1,1.9,2,2.6,3.1,2.4c-5.5,12-9.9,31-14.5,61.9c-2,9.4-3.4,39.2-15.4,34c2.4-6.3,4.8-17.9,6.2-26.1
	c0.6-0.8,1.2-1.8,1.8-3.6c4.7-12.9,8.8-39.3,12-52.9c-0.7,1.5-2,5.9-2.6,7.9c-2.7,15.4-7.7,37.9-10.4,44.5c-1.5,3.6-5.1,7-9.2,5.9
	C160.2,152.9,171.6,113.4,176.1,100.9z M187.8,101.3c0.5-0.3,1-0.9,1.5-1.7c1.4,1.9,2.9,2.3,4.1,1.6c-2.4,7.9-4.5,16.2-5.4,29.1
	c-1.2,6-5.5,6.9-8.1,8.4C179.8,127.2,184.1,113.1,187.8,101.3z M194.2,100.5c0.2-0.3,0.4-0.5,0.6-0.9c1.2,2.2,2.6,2.6,4.2,2.1
	c-2.5,6.6-5.3,13.5-5.2,20.9c0.1,2.8-0.5,4.7-4.8,5.5c0-0.1-0.1-0.1-0.2-0.2c0.9-10.9,2.8-19.5,5.2-27.1
	C194.3,100.2,194.2,100.5,194.2,100.5z M200.4,100.3c0.3-0.6,0.5-0.8,0.9-1.7c1.2,1.9,2.5,2.4,3.8,2.1c-1.6,3.6-5.4,10.6-5.4,14.8
	c0,2.5-3.2,5.7-4.9,6.2C194.2,117,198.3,104.5,200.4,100.3z M208.7,94.3c-1.7,4.9-4.4,6.4-7.3,4c0.2-0.5,0.4-1.7,0.5-2.3
	c1.9,1,3.9-0.6,4.9-3.6C207.4,93.1,208.1,93.8,208.7,94.3z M206.4,91.9c-1.5,2.7-3.4,3.5-5.4,2.6c0.7-1.2,1.3-2.8,1.5-4.8
	c0.5-0.5,0.9-1.2,1.3-2c0.6,1,1.2,2.1,1.8,3.2C205.9,91.3,206.1,91.6,206.4,91.9z M203.3,86.8c-2.2,3.8-4.8,3.8-6.9,0.1
	c0.3-0.6,0.7-1.2,0.9-1.9h0c1-0.7,1.9-2,2.6-3.8C201.2,82.9,202.2,84.8,203.3,86.8z M182.9,82.9c0.7,0.7,1.4,1,2.1,0.9
	c-1.9,4.5-4.1,5.7-6.1,3.5l0.1-0.5l0,0C180.4,87,181.8,85.5,182.9,82.9z M185.7,83.7c0.6-0.3,1.2-0.8,1.8-1.5
	c0.9,1.5,1.9,2.1,2.9,2.1c-1.8,3-3.7,3.7-5.5,2C185.2,85.4,185.5,84.6,185.7,83.7z M191.4,83.9c0.5-0.2,0.9-0.6,1.4-1.1
	c1,2.1,2.2,2.9,3.4,2.7c-1.5,2.3-3.1,3.2-4.6,2.7l0,0l0,0c-0.5-0.2-1.1-0.5-1.6-1c0,0-0.2-0.1-0.3-0.2
	C190.3,86.2,190.9,85.2,191.4,83.9z M179.7,94.4c1.7,1.1,3.5,0.6,4.9-1c0.1,0.2,0.3,0.4,0.5,0.5c-1.5,5.4-3.6,6.9-6.4,4.3
	C179.1,97.2,179.4,95.9,179.7,94.4z M185.2,94.2c1.7,1.5,3.6,0.8,4.9-1.2c0.2,0.4,0.5,0.7,0.7,1c-1.8,6-4.2,7.5-6.9,4.8
	C184.5,97.5,184.9,96,185.2,94.2z M190.8,94c1.5,1.6,3.2,1.5,4.4,0.2c0.2,0.3,0.4,0.6,0.6,0.9c-1.3,5-3.6,6.4-6.6,4.6
	C190,98.2,190.6,96.3,190.8,94z M196,95.1c1.6,1.9,3.4,1.6,4.7-0.1c0.4,0.4,0.8,0.8,1.2,1c-0.2,0.5-0.4,1-0.7,1.5l-0.1,0l0,0.1
	c-1.7,3.3-3.9,3.8-6.3,2.1C195.4,98.4,195.9,96.9,196,95.1z M202.4,89.8c-0.7,2-1.5,3.4-2.5,4.2c0,0-0.1,0-0.1-0.1
	c0,0,0,0.1,0.1,0.1c-1.4,1.5-2.9,1.3-4.6,0c1-1.1,1.7-2.8,1.9-5C198.8,91.6,200.8,91.6,202.4,89.8z M197.3,89
	c-1.8,4.7-4.4,5.7-7.2,3.8c0.6-0.9,1-2.1,1.3-3.5c1.7,0.9,3.5-0.1,4.9-2.4C196.6,87.8,197,88.5,197.3,89z M191.2,89.2
	c-1.7,3.9-4,5.1-6.5,4c0.9-1.2,1.6-2.8,1.8-4.8c1,0.3,2-0.2,2.9-1.2c0.1,0.1,0.3,0.2,0.2,0.3C190.1,88.3,190.6,88.9,191.2,89.2z
	 M186.5,88.4c-1.8,4.4-4.2,6.2-6.9,4.9c0.5-0.9,0.9-2.1,1.2-3.4c1.3,0.3,2.7-0.8,3.8-3C185.1,87.7,185.8,88.2,186.5,88.4z
	 M180.5,89.7c-1.4,3.6-3.3,5.2-5.4,4.1c0.5-0.6,1-1.4,1.4-2.3c1-0.5,1.8-1.7,2.2-3.5C179.3,89,179.9,89.5,180.5,89.7z M175,94.1
	C174.9,94.1,174.9,94.1,175,94.1L175,94.1z M174.6,94.5C174.6,94.5,174.5,94.5,174.6,94.5L174.6,94.5z M228.8,179.8
	c-1.3,1.6-2.7,3.2-4.1,4.8c-0.7,0.7-1.4,1.4-2.1,2.1c-0.7,0.7-1.5,1.3-2.2,1.9c-0.9,0.7-1.8,1.5-2.8,2.2c-0.9,0.7-1.9,1.4-2.8,2l0,0
	c-0.2,0.1-0.5,0.3-0.7,0.4c-0.3,0.1-0.5,0.2-0.7,0.2c-1.3,0.2-2.5-0.2-3.5-1.4l0,0c-0.1-0.2-0.2-0.4-0.3-0.6
	c-0.4-0.8-0.5-1.7-0.3-2.6c0.1-0.3,0.2-0.5,0.3-0.8c0.2-0.3,0.4-0.6,0.7-0.8c0.1-0.1,0.3-0.2,0.5-0.3c1.6-0.8,3.1-1.6,4.5-2.2
	c3-1.4,5.5-2.6,7.8-4.3c1.2-0.8,2.4-1.7,3.6-2.8c0.2,0,0.5,0,0.8,0.1c0.3,0.1,0.5,0.2,0.8,0.4c0.2,0.2,0.4,0.4,0.6,0.6
	C228.8,178.9,228.9,179.3,228.8,179.8z M231.2,180.2c0.3,0.2,0.5,0.5,0.6,0.7c0.1,0.2,0.1,0.5,0,0.8c-0.4,0.8-0.8,1.6-1.2,2.4
	c-0.4,0.8-0.9,1.7-1.4,2.5c-0.3,0.4-0.5,0.9-0.8,1.4c-0.3,0.5-0.7,1.1-1.1,1.6c-0.8,1.2-1.7,2.5-2.6,3.7c-1.5,1.8-3,3.5-4.5,5l0,0
	c-0.2,0.1-0.3,0.3-0.5,0.4c-0.2,0.1-0.3,0.2-0.5,0.3c-0.9,0.5-2.1,0.5-3.4-0.4c-0.2-0.2-0.4-0.4-0.5-0.6c-0.5-0.7-0.7-1.5-0.6-2.3
	c0-0.3,0.1-0.6,0.2-0.9c0.1-0.3,0.3-0.6,0.5-0.8c0.2-0.2,0.3-0.3,0.5-0.5l0,0c0.7-0.5,1.5-1.1,2.2-1.6c0.7-0.6,1.4-1.1,2.1-1.7
	c1.1-0.9,2.1-1.9,3.1-2.8c1.4-1.3,2.7-2.6,4-4c0.4-0.4,2.2-2.8,2.8-3.3C230.3,180,230.7,180,231.2,180.2z M234.5,181.6
	c0.3,0.2,0.4,0.5,0.5,0.7c0.1,0.3,0.1,0.6,0.1,0.9c-0.1,0.3-0.2,0.5-0.3,0.8c-1.7,4.4-3.5,8.7-5.2,13c-0.3,0.7-0.6,1.4-0.9,2
	c0,0.1-0.1,0.2-0.1,0.3c-0.4,0.9-0.9,1.6-1.2,2.2c0,0.1-0.1,0.2-0.1,0.3c-0.4,0.8-1.4,1.4-2.1,1.6c-0.7,0.2-1.4,0.3-2.2-0.1
	c-0.1,0-0.2-0.1-0.3-0.1v0c-0.2-0.1-0.3-0.2-0.5-0.3c-1.1-0.7-1.4-1.9-1.1-3.1c0.1-0.5,0.4-1,0.7-1.4c0.1-0.2,0.2-0.3,0.3-0.4
	c1-1.3,2-2.6,3-3.9c0.1-0.1,0.2-0.3,0.3-0.4c1.4-1.7,2.7-3.6,3.9-5.4c1.4-2.1,2.6-4.2,3.7-6.4c0.2-0.1,0.4-0.3,0.6-0.3
	C233.9,181.4,234.2,181.4,234.5,181.6z M237.4,182.6c0.8,0.3,0.9,0.8,1,1.3l0,0.1c-0.1,0.7-0.2,1.4-0.3,2.1l-1.8,10.6
	c-0.5,2.1-1,4.1-1.6,6.1h0l0,0v0l0,0c-0.1,0.2-0.2,0.4-0.3,0.7c-0.1,0.3-0.3,0.5-0.4,0.7c-2,2.4-5.9,1.3-5.5-2.5
	c0-0.1,0-0.1,0.1-0.2v0h0c0.1-0.4,0.3-0.8,0.4-1.1c0.4-1.1,0.9-2.2,1.4-3.3c1.9-4.4,3.9-8.9,5.4-12.9c0.1-0.3,0.2-0.6,0.4-0.9
	c0.1-0.2,0.3-0.4,0.6-0.6c0.1-0.1,0.3-0.1,0.4-0.2C237.3,182.6,237.3,182.6,237.4,182.6z M245,183.4c1.1,0.4,1,1.6,1.3,2.8
	c0.4,2.5,0.8,5,1.3,7.4c0.2,1,0.4,2.1,0.7,3.1l1.1,5.9l0.1,0.4h0c0,0.1,0,0.2,0,0.3l0,0c0.2,1.7-0.6,2.9-2.4,3.2v0
	c-0.1,0-0.2,0-0.3,0c-0.1,0-0.2,0-0.4,0c-1.7,0-2.9-1-3.1-2.7c0-0.1,0-0.2,0-0.3c0-3.2,0-6.3,0-9.4c0-3,0-6,0-9l0-0.3
	c0.1-0.5,0.4-1,0.9-1.3c0.1-0.1,0.2-0.1,0.3-0.2c0.1,0,0.2-0.1,0.3-0.1C244.8,183.4,244.9,183.4,245,183.4z M241,183.3
	c0,0,0.1,0,0.1,0.1c0.1,0,0.2,0.1,0.3,0.2c0.4,0.3,0.7,0.9,0.9,1.3l0,0.3c0,3.1,0,6-0.1,9c0,3.1-0.1,6.2-0.1,9.4c0,0.1,0,0.2,0,0.3
	c-0.1,1.5-1,2.4-2.3,2.7c-0.2,0-0.5,0.1-0.7,0.1c-0.1,0-0.2,0-0.4,0c-0.1,0-0.2,0-0.3,0v0c-1.9-0.4-2.6-1.7-2.4-3.5
	c0-0.1,0-0.2,0.1-0.3l1.2-6.1c0.2-1,0.5-2.1,0.7-3.1c0.5-2.5,0.9-4.9,1.3-7.4C239.4,184.9,239.4,183.5,241,183.3z M260.5,184.4
	c1.5,1.5,3,2.9,4.6,4.2c0.9,0.7,1.8,1.5,2.8,2.2c0.9,0.7,1.9,1.4,2.8,2l0,0c0.2,0.1,0.5,0.3,0.7,0.4c0.2,0.1,0.5,0.2,0.7,0.2
	c1.3,0.2,2.5-0.2,3.5-1.4v0c0.1-0.2,0.2-0.4,0.3-0.5c0.4-0.8,0.5-1.7,0.3-2.6c0-0.1-0.1-0.3-0.1-0.4c-0.2-0.4-0.5-0.8-0.8-1
	c-0.1-0.1-0.3-0.2-0.5-0.3c-1.6-0.9-3.1-1.6-4.5-2.3c-3.8-1.8-6.8-3.3-9.6-5.8c-0.5-0.4-1-0.8-1.5-1.3c-0.3-0.1-0.6-0.1-0.9,0
	c-0.3,0.1-0.5,0.2-0.8,0.3c-0.2,0.2-0.4,0.4-0.6,0.6c-0.2,0.3-0.3,0.8-0.2,1.2C257.9,181.5,259.1,183,260.5,184.4z M258.8,190.8
	c0.6,0.8,1.2,1.7,1.9,2.5c1.5,1.8,3,3.5,4.5,5l0,0c0.2,0.1,0.3,0.3,0.5,0.4c0.2,0.1,0.3,0.2,0.5,0.3c0.9,0.5,2.1,0.5,3.4-0.3
	c0.2-0.2,0.4-0.4,0.5-0.6c0.5-0.7,0.7-1.5,0.6-2.3c0-0.2,0-0.4-0.1-0.5c-0.1-0.4-0.3-0.7-0.6-1c-0.2-0.2-0.3-0.3-0.5-0.5l0,0
	c-0.7-0.5-1.5-1.1-2.2-1.6c-0.7-0.6-1.4-1.1-2.1-1.7c-1.9-1.7-3.8-3.5-5.5-5.4c-0.5-0.5-1-1.1-1.5-1.6c-0.4-0.4-1.8-2.4-2.6-3.1
	c-0.4-0.1-0.9-0.2-1.5,0.1c-0.3,0.2-0.5,0.5-0.6,0.7c-0.1,0.2-0.1,0.5,0,0.8c0.4,0.8,0.8,1.6,1.2,2.4c0.4,0.8,0.9,1.7,1.4,2.5
	c0.3,0.5,0.5,0.9,0.8,1.4c0.3,0.5,0.7,1.1,1,1.6C258.3,190.1,258.5,190.5,258.8,190.8z M255.8,197.1c0.3,0.6,0.5,1.1,0.8,1.7
	c0.5,1.1,1,2,1.4,2.7c0,0.1,0.1,0.2,0.1,0.3c0.4,0.8,1.4,1.4,2.1,1.6c0.7,0.2,1.4,0.3,2.2-0.1c0.1,0,0.2-0.1,0.3-0.1h0
	c0.2-0.1,0.3-0.2,0.5-0.3c1-0.6,1.3-1.7,1.2-2.7c-0.1-0.6-0.4-1.2-0.7-1.7c-0.1-0.2-0.2-0.3-0.3-0.5c-1-1.3-2-2.6-3-3.9
	c-0.7-0.9-1.4-1.9-2.1-2.9c-0.7-1-1.4-2-2.1-3.1c-1.3-2.1-2.6-4.2-3.6-6.4c0,0-0.1,0-0.1-0.1c-0.1,0-0.2-0.1-0.3-0.1
	c-0.3-0.1-0.7-0.1-1.2,0.1c-0.3,0.2-0.4,0.5-0.5,0.7c-0.1,0.3-0.1,0.6-0.1,0.9c0.1,0.3,0.2,0.5,0.3,0.8
	C252.3,188.5,254.1,192.8,255.8,197.1L255.8,197.1z M250.1,201.3c0.1,0.5,0.3,0.9,0.4,1.4h0l0,0v0c0.1,0.3,0.2,0.5,0.3,0.8
	c0.1,0.3,0.3,0.5,0.4,0.7c2,2.4,5.8,1.3,5.5-2.3c0-0.1-0.1-0.2-0.1-0.2v0l0,0c-0.4-1.2-0.9-2.4-1.4-3.7c-0.1-0.3-0.3-0.6-0.4-0.9
	c-1.9-4.5-3.8-8.9-5.4-12.9c-0.1-0.3-0.2-0.6-0.3-0.9c-0.1-0.2-0.3-0.4-0.6-0.6c-0.2-0.1-0.4-0.1-0.7,0c-0.8,0.3-0.9,0.8-1,1.3
	l0,0.1c0.1,0.7,0.2,1.4,0.3,2.1l1.8,10.6C249.3,198.3,249.7,199.9,250.1,201.3z M289.6,162c1.9,2.4,3.8,2.7,4.7,1.6
	c2.9-0.7,4.9,1.7,4.8,5C302.9,157.6,289.1,159.1,289.6,162z M254.1,160.9c-0.2,0.2-0.3,0.3-0.4,0.4c0.7,2.3,1,4.4,1.7,6.8
	c0.3-2.6,2.8-4.4,6-3.7c1.4-3.1,4.4-2.5,5.3-1.6c-1.5-3.1-3.4-5.6-5.5-9.4c-2.8,0.2-4.9-2.1-5.9-2.9
	C255.7,154.4,256.3,157.8,254.1,160.9z M256,63.5c0.3-1.4,0.8-2.7,2.1-3.8c1.3,0.9,2,2.2,2.7,3.8C259.5,63.2,257.8,63.2,256,63.5z
	 M263.7,67.9c1.6-0.1,3,1.1,3.1,2.8c0.1,1.6-1.1,3-2.8,3.1c-1.6,0.1-3-1.1-3.1-2.8C260.8,69.4,262.1,68,263.7,67.9z M263.7,69.2
	c0.9,0,1.7,0.7,1.7,1.6c0,0.9-0.7,1.7-1.6,1.7c-0.9,0-1.7-0.7-1.7-1.6C262.1,70,262.8,69.2,263.7,69.2z M263.8,70
	c0.5,0,0.8,0.3,0.9,0.8c0,0.5-0.3,0.8-0.8,0.9c-0.5,0-0.8-0.3-0.9-0.8C263,70.4,263.3,70,263.8,70z M263.7,68.5
	c1.3-0.1,2.4,0.9,2.5,2.2c0.1,1.3-0.9,2.4-2.2,2.5c-1.3,0.1-2.4-0.9-2.5-2.2C261.4,69.7,262.4,68.6,263.7,68.5z M247.6,65.4
	c0,1.4,0.7,2.9,2,3.7c0.5-0.1,0.9-0.9,1.2-1.1c0.5-0.4,0.6-0.8,0.9-1.4C250.5,65.4,249.3,65.4,247.6,65.4z M262.7,85.2
	c0.3-2.1,1.5-5.6,4.5-5C266.7,83.7,266.1,84.6,262.7,85.2z M276.1,79c-0.1-4.2-2.9-6.3-6.4-5.4c0.8-1.3,1.4-1.8,1.7-3.5
	c4.5,1.2,6.3,4.1,5.5,7.4C276.8,77.8,276.5,78.6,276.1,79z M268,78.1c0.2-1.3,0.3-3,1.2-3.4c2.8-1.7,6.5,1.1,5.9,4.4
	C273.4,76.1,270.7,75.3,268,78.1z M266.2,145.2c-6.3-0.8-6.4,4.1-4.3,7.2c2.5,4.2,5,8.7,7.1,12.4c-1,0.3-1.3-0.5-2.4-1.1
	c-2-0.7-3-1.1-4.6,1.5c1.3,1.5,1.6,4.1-0.5,4.5c1.3,4.6,6.3,3.1,6.9,0.3c0.9-0.2,1-0.1,1.3-0.5c0.1,1.2,1.8,1.9,3.1,0.7
	c0.9,1.5,3.2,1,3.9-0.2c1,1.6,3.1,2.3,5.4,1.2c0.4,1.9,2.3,3.4,4.1,3.5c1.8,0.1,3.7-0.6,3.6-2.1c-1.3-1.1-0.6-3.2-0.2-3.5
	c-1.1-0.2-2.1-0.6-2.8-0.9c-3.6,0.9-9.2,0-9.9-1.3c0.1,0,0.2-0.1,0.3-0.1c2,0.7,4.1,1.6,9.9,0.5c2.6,1.9,8.5,1.5,7.2-1.9
	c0-0.1-0.1-0.3-0.2-0.3c-2.5,0.3-4.1-1.4-4.8-2.9c-3,5.2-9,4.5-12.7,3c0-0.2-0.1-0.5,0.1-0.4c1,0.2,3.8,1.5,6.7,0.8
	c2.7-0.9,3.6-1.2,5.2-3.2c0.2,0,0.9-2.7,0.2-3.2c-0.9,2.1-4.6,2.4-5-0.4c-0.1-1.6,0.5-2.3,1.1-3l-0.1-0.1c-3.2,1.5-6.1,4.5-6.9,6.8
	c-0.7,1.4-2.7,0.6-3.4-0.7c-3.4-5.4-5.9-9.3-7.6-15.1C266.5,145.9,266.4,145.8,266.2,145.2z M292,159.1c-0.7-0.6-1.6-0.6-2.6-0.3
	c0.4,0.6,0.4,1.1,0.1,1.7C290.3,159.5,291.3,159.2,292,159.1z M257.9,173.6c0.6,0.4,1.3,0.5,2.1,0.4c-2.9-2-2.3-4.4-0.8-4.8
	c0.5-0.2,1-0.3,1.6,0.1c1.9-0.9,1.4-2.4,0.5-3.7C256,163.7,253.9,171,257.9,173.6z M286.3,155c-0.8,0.3-2.2,1.7-2,3.5
	c0.8,2.8,4,0.9,3.7-0.2c3.4-1.4,4.9,0.3,5.5,1.4C294.9,155.7,289.1,154,286.3,155z M291.5,178.1c3.4-3.5,1.9-6.8-1.3-6.2
	c-0.6-0.7-1.1-1.1-0.2-2.8c1.4,0.3,2.6,0,3.3,0C297.1,170.9,296.6,178.6,291.5,178.1z M261,152.4c-2.6-3.9-1.3-9.4,5.2-8
	c-1.3-6.5,0.7-15.7-0.1-18.9c-1.9-6.4-4.6-6.9-7.3-7.3c-4.7-0.3-6.7,3.3-7.1,8.4c-0.5,6.4,1.3,14.9,3.3,20.7
	C255.8,149.8,258,152.5,261,152.4z M307,140.2c2.2,4.2,5.1,7.4,7.9,7.8c-2.4-17.8-6.6-35.5-11.3-46.9l0.1,0c-0.6-0.3-1.1-1-1.6-1.9
	c-1,2.2-2.2,3-3.3,2.8c1.9,5.7,7.8,23.1,8.2,33.7C307.1,137.2,307,138.7,307,140.2z M319,126.1c1.7,2.7,6,7.4,7.9,7.5
	c-1.4-5.9-6-16.1-9.2-28.7l-3.9-6.3c-0.9,1.9-2.1,2.8-3.2,2.9c1.6,4.9,4.1,12.4,6.7,20.4C317.7,122.9,317.8,123.7,319,126.1z
	 M327.3,134.6c-2.3,0.6-5.6-2.9-8.3-7.3c2.6,7.4,4.7,14.2,6.4,17.6c1.7,1.7,4.3,3.5,6.7,2C330.5,142.5,328.8,138.4,327.3,134.6z
	 M268.6,98.3c1.4,2.5,3.3,3.2,5.3,2.3c-0.7-0.7-1.2-1.8-1.6-3.1C271,97.9,269.8,98.2,268.6,98.3z M272.7,97.3
	c1.7,3.1,3.9,3.7,6.3,2.2c-0.9-1-1.6-2.6-2.1-4.6C275.6,96,274.2,96.8,272.7,97.3z M279.1,99.6c-1.1,1.7-2.3,2.3-3.5,2.1
	c2,3.8,5.6,9.6,5.6,13.9c1.2,1,2.5,1.5,3.9,1c0.9-3.7-4.1-13.9-5.3-16.4C279.6,100,279.3,99.8,279.1,99.6z M274.7,101.4
	c-0.2-0.1-0.4-0.2-0.5-0.4c-1,1.2-2.1,1.6-3.2,1.3c1.1,3.4,4,7.4,5.2,11.9c0.8,1.3,1.9,2.1,4,1.4
	C280.6,110.9,277.5,106.4,274.7,101.4z M286.6,80.9c2,4,4.4,4.8,6.5,2c-1-1.3-1.9-3.4-2.5-6C289,78,287.7,79.3,286.6,80.9z
	 M290.9,76.6c2.1,6.2,4.9,8.1,7.3,5.5c-1-1.6-2-4-2.7-6.9l0-0.1l0,0l0,0l0,0l0,0l0,0l0-0.1l0-0.1l0,0l0,0l0-0.1l0,0l0,0l0,0l0-0.1
	c0-0.1,0-0.1,0-0.1l0,0l0,0l0,0l0,0l0,0l0,0l0,0l0,0l0,0l0,0l0,0l0,0l0,0l0,0l0,0l0,0l0,0l0,0l0,0l0,0l0,0l0,0l-0.1,0l0,0l0,0
	C293.5,75.1,292.1,75.8,290.9,76.6z M295.8,74.4L295.8,74.4L295.8,74.4c2.5,10.7,7.3,10.5,10,2.4c-0.3-0.2-0.6-0.5-0.9-0.7
	c-2.1-1.3-4.9-2.5-7.8-2l0,0c-0.1,0-0.2,0-0.3,0.1l0,0l-0.1,0l0,0l-0.1,0l0,0l0,0l0,0l-0.1,0l0,0l0,0l0,0l0,0l0,0l0,0l0,0l-0.1,0
	l-0.2,0.1L295.8,74.4L295.8,74.4L295.8,74.4z M306,76.9c-0.3,1.8-1.3,5.3-2.3,5.8c2,5.1,5,4.1,7.1-1.2
	C309.4,79.8,307.8,78.2,306,76.9z M310.9,81.5c-0.4,2.4-1.6,4.8-2.8,5.2c-0.2,0.2-0.2,0.2-0.4,0.3c0,0.1,0,0.3,0.1,0.4
	c1.3,4.6,4.3,4.8,7.3,0.7C314,85.8,312.6,83.6,310.9,81.5z M315.2,88.1c-1.3,3.3-3.8,4.3-5.2,4.1c2.8,3.3,5.7,3.5,8.4,1.3
	C317.4,91.9,316,89.8,315.2,88.1z M318.4,93.6c-1.4,3-3.7,3.5-5.7,2.3c3.1,3.9,5.6,7.7,6.3,8.2c3,2.3,10.3,2.1,11.5-0.3
	c-2-0.2-6.6-2-9.1-5.8C320.4,96.7,319.4,95.2,318.4,93.6z M311.6,95.2L311.6,95.2L311.6,95.2c-1.7,1.6-3.5,1.1-4.8-0.7
	c-0.1,0.1-0.2,0.2-0.3,0.2c1.3,5.8,4.1,6.8,7.2,3.7l-2.3-3.2L311.6,95.2z M309.9,101.4c-0.9-0.2-1.8-1-2.4-2.3
	c-1,1.8-2.1,2.5-3.1,2.3c5.5,12,9.7,31.1,14.1,62c2,9.4,3.1,39.2,15.1,34.1c-2.4-6.3-4.7-17.9-6-26.1c-0.6-0.8-1.2-1.8-1.8-3.6
	c-4.6-12.9-8.6-39.3-11.7-53c0.7,1.5,1.9,5.9,2.6,7.9c2.6,15.4,7.5,37.9,10.2,44.6c1.5,3.6,5.1,7.1,9.2,6
	C325.5,153.4,314.3,113.9,309.9,101.4z M298.2,101.7c-0.5-0.3-1-0.9-1.5-1.7c-1.4,1.9-2.9,2.3-4.1,1.6c2.3,7.9,4.4,16.3,5.2,29.1
	c1.1,6,5.4,6.9,8,8.5C306,127.6,301.7,113.5,298.2,101.7z M291.7,100.8c-0.2-0.3-0.4-0.5-0.6-0.9c-1.2,2.2-2.7,2.6-4.2,2.1
	c2.4,6.6,5.2,13.6,5,21c-0.1,2.8,0.5,4.7,4.7,5.6c0-0.1,0.1-0.1,0.2-0.2c-0.9-10.9-2.7-19.5-5-27.2
	C291.7,100.6,291.7,100.8,291.7,100.8z M285.5,100.7c-0.3-0.6-0.5-0.8-0.9-1.7c-1.2,1.9-2.6,2.4-3.8,2.1c1.5,3.6,5.3,10.7,5.3,14.9
	c0,2.5,3.2,5.7,4.9,6.2C291.7,117.4,287.6,104.8,285.5,100.7z M277.3,94.6c1.7,4.9,4.4,6.4,7.3,4c-0.1-0.5-0.4-1.7-0.5-2.3
	c-2,1-3.9-0.7-4.8-3.7C278.6,93.4,277.9,94,277.3,94.6z M279.6,92.2c1.5,2.7,3.4,3.5,5.4,2.6c-0.7-1.2-1.3-2.8-1.4-4.8
	c-0.5-0.5-0.9-1.2-1.3-2c-0.6,1-1.2,2.1-1.8,3.2C280.1,91.6,279.9,91.9,279.6,92.2z M282.7,87.1c2.2,3.8,4.8,3.9,6.9,0.1
	c-0.3-0.6-0.6-1.2-0.9-1.9c-1-0.7-1.9-2-2.6-3.8C284.9,83.3,283.8,85.1,282.7,87.1z M303.1,83.3c-0.7,0.7-1.4,1-2.1,0.9
	c1.9,4.5,4.1,5.7,6.1,3.5l-0.1-0.5l0,0C305.6,87.4,304.2,86,303.1,83.3z M300.3,84.1c-0.6-0.3-1.2-0.8-1.8-1.5
	c-0.9,1.5-1.9,2.1-2.9,2.1c1.8,3,3.7,3.7,5.5,2C300.9,85.9,300.6,85,300.3,84.1z M294.7,84.3c-0.5-0.2-0.9-0.6-1.4-1.1
	c-1,2.1-2.2,2.9-3.4,2.7c1.5,2.3,3,3.2,4.6,2.7l0,0l0,0c0.5-0.2,1.1-0.5,1.6-1c0,0,0.2-0.1,0.3-0.2
	C295.7,86.6,295.2,85.6,294.7,84.3z M306.3,94.9c-1.7,1.1-3.5,0.6-4.9-1c-0.2,0.2-0.3,0.4-0.5,0.5c1.4,5.4,3.6,6.9,6.3,4.3
	C306.9,97.6,306.5,96.3,306.3,94.9z M300.8,94.6c-1.7,1.5-3.6,0.8-4.8-1.3c-0.2,0.4-0.5,0.7-0.7,1c1.7,6.1,4.2,7.6,6.9,4.8
	C301.5,98,301,96.4,300.8,94.6z M295.1,94.4c-1.5,1.6-3.2,1.5-4.4,0.1c-0.2,0.3-0.4,0.6-0.6,0.9c1.2,5,3.6,6.4,6.5,4.6
	C295.9,98.6,295.4,96.7,295.1,94.4z M290,95.5c-1.6,1.9-3.4,1.6-4.7-0.2c-0.4,0.4-0.8,0.8-1.2,1c0.2,0.5,0.4,1,0.6,1.5l0.1,0l0,0.1
	c1.7,3.3,3.9,3.8,6.3,2.1C290.5,98.8,290.1,97.3,290,95.5z M283.6,90.1c0.7,2,1.5,3.4,2.4,4.2c0,0,0.1,0,0.1-0.1c0,0,0,0.1-0.1,0.1
	c1.4,1.5,2.9,1.4,4.6,0.1c-1-1.1-1.7-2.8-1.9-5C287.2,91.9,285.2,91.9,283.6,90.1z M288.7,89.4c1.7,4.7,4.3,5.7,7.2,3.9
	c-0.6-0.9-1-2.1-1.3-3.5c-1.7,0.9-3.5-0.1-4.9-2.4C289.4,88.2,289.1,88.8,288.7,89.4z M294.8,89.6c1.7,4,4,5.1,6.5,4
	c-0.9-1.2-1.5-2.8-1.8-4.8c-1,0.3-2-0.2-2.9-1.2c-0.1,0.1-0.3,0.2-0.2,0.3C295.9,88.7,295.4,89.3,294.8,89.6z M299.6,88.8
	c1.7,4.4,4.2,6.2,6.8,4.9c-0.5-0.9-0.9-2.1-1.1-3.4c-1.3,0.3-2.7-0.8-3.8-3.1C300.9,88.1,300.2,88.6,299.6,88.8z M305.5,90.2
	c1.4,3.6,3.3,5.3,5.3,4.2c-0.5-0.6-1-1.4-1.4-2.3c-1-0.5-1.8-1.7-2.2-3.5C306.7,89.4,306.1,90,305.5,90.2z M311,94.5
	C311,94.6,311.1,94.6,311,94.5L311,94.5z M311.4,94.9C311.4,95,311.5,95,311.4,94.9L311.4,94.9z M258.3,179.1
	c-0.2-0.2-0.4,0.1-0.2,0.2c3.9,4.5,8.7,8.6,14.5,12.3c0.7,0.3,1.4,0.3,1.8-0.4c0.2-0.8,0-1.4-0.4-1.6
	C268.5,187,262.9,183.8,258.3,179.1z M255.4,181.7c-0.2-0.2-0.4,0-0.3,0.2c3,5.3,7,10.4,11.6,15.3c0.6,0.5,1.1,0.6,1.7,0
	c0.4-0.7,0.2-1.3-0.1-1.6C263.5,191.6,258.8,187.1,255.4,181.7z M252.2,183.1c-0.1-0.2-0.4-0.1-0.3,0.1c1.6,5.6,4.3,11.4,8,17.4
	c0.5,0.6,0.9,0.8,1.6,0.3c0.5-0.6,0.5-1.2,0.2-1.6C258.1,194.6,254.6,189.2,252.2,183.1z M245.1,185.1c0-0.3-0.3-0.2-0.3,0
	c-0.2,5.7-0.2,11.9,0.2,18.6c0.2,0.7,0.5,1.1,1.3,1c0.7-0.3,0.9-0.9,0.8-1.3C246.2,197.9,245.4,191.9,245.1,185.1z M242.7,181.4
	L242.7,181.4L242.7,181.4L242.7,181.4L242.7,181.4L242.7,181.4L242.7,181.4L242.7,181.4L242.7,181.4L242.7,181.4L242.7,181.4
	L242.7,181.4L242.7,181.4L242.7,181.4L242.7,181.4L242.7,181.4L242.7,181.4L242.7,181.4L242.7,181.4L242.7,181.4L242.7,181.4
	L242.7,181.4L242.7,181.4l-0.1,0h0l0,0h0l0,0h0h0l0,0h0l0,0h0h0h0l0,0h0h0h0h0h0h0l0,0h0h0h0h0h0h0l0,0h0h0h0h0h0h0h0h0l0,0h0h0h0h0
	h0h0h0h0h0l0,0h0h0h0l0,0h0h0h0h0h0h0h0c0,0-0.1,0-0.1,0c-1-0.1-1.8-1-2.2-2c-0.5,0.8-1.5,1.4-2.5,1.3c-1.2-0.1-2.1-1.5-2.3-2.6
	c-2.6,2.5-5.3-0.6-4.6-2.5l0,0l3.2-13c0.1-0.4,0.2-0.7,0.5-1.1c0.2-0.2,0.4-0.3,0.7-0.4c0.4-0.2,0.8-0.2,1.2-0.1
	c0.4,0.1,0.7,0.3,1,0.6c0.2,0.2,0.3,0.5,0.4,0.8c0.2-0.3,0.5-0.5,0.8-0.6c0.3-0.1,0.7-0.2,1-0.1c0.3,0.1,0.6,0.2,0.9,0.5
	c0.2,0.2,0.3,0.4,0.4,0.6c0.2-0.3,0.4-0.5,0.7-0.7c0.3-0.2,0.6-0.3,1-0.3h0l0,0h0c0,0,0.1,0,0.1,0l0,0l0,0h0h0l0,0v0l0,0
	c0.4,0,0.7,0.1,1.1,0.4c0.2,0.2,0.5,0.4,0.7,0.7c0.1-0.3,0.3-0.5,0.4-0.6c0.3-0.2,0.6-0.4,0.9-0.4c0.3,0,0.7,0,1,0.2
	c0.3,0.1,0.6,0.3,0.8,0.6c0.1-0.3,0.3-0.6,0.5-0.8c0.3-0.3,0.7-0.5,1-0.6c0.4-0.1,0.8-0.1,1.2,0.1c0.2,0.1,0.5,0.2,0.7,0.4
	c0.4,0.4,0.4,0.6,0.5,1.1l2.9,13.1l0,0c0.2,1.1-0.5,2.7-1.9,3.1c-1,0.3-2.2,0.1-2.8-0.8c-0.2,1-0.9,2.3-2.2,2.5
	c-1,0.1-1.9-0.5-2.4-1.3c-0.4,1-1.4,1.9-2.4,1.9C242.7,181.4,242.7,181.4,242.7,181.4z M190.7,74.3l0,0.1h0
	c-0.7,3.1-1.8,5.6-2.8,7.3c2.4,2.6,5.2,0.7,7.4-5.4c-1.2-0.8-2.6-1.5-4.2-2h0l0,0l0,0l0,0l0,0l0,0l0,0l0,0l0,0l0,0l0,0h0l0,0l0,0
	l-0.1,0l0,0l0,0l0,0l0,0l0,0l0,0l0,0l0,0l0,0l0,0h0l0,0l0,0l0,0h0l0,0l0,0l-0.1,0C190.7,74.2,190.7,74.2,190.7,74.3z M293.7,73.6
	c-13.7-11.9-31.5-19.1-50.9-19.1v0h0h0v0c-19.2,0-36.8,7-50.4,18.7c4.1,1.6,7.7,5.1,9.8,9.2c3.3,7.2,10.4,20.7,26.1,10.9
	c0.1-1.2,0.6-2.4,1.8-2.9l0-0.5c-0.1-1.4-1.2-1.7-2.7-2c-0.6-0.1-1,0-1.6-0.2c-1.6-0.4-1.5-1.1-2.4-1.4c-5.1-0.7-5.6-4.9-5.6-7.3
	c-1.1-3-6.2-2-6.6,1.9c-5.7-3.7-2.9-10.8,3.4-12.4c0.5-3.5,4.3-3.5,6.2-3.3c0.8-0.5,1.5-1,2.7-1.4c1-2.5,3-5,5-5.8
	c1.7,1.3,2.8,3.5,3.2,5.8c0.1,0,0.2,0.1,0.4,0.1c2.8-1.9,6.6-2.3,9.6-0.8c0.6,2.9-0.9,7-2.9,9.3c1.7,2,3.5,5.8,4.3,7.6
	c0.9-1.9,2.6-5.6,4.3-7.5c-2-2.3-3.4-6.4-2.8-9.3c3.1-1.5,6.9-1,9.6,0.8c0.1,0,0.2-0.1,0.4-0.1c0.5-2.3,1.6-4.4,3.3-5.7
	c2,0.8,3.9,3.3,4.9,5.8c1.2,0.5,1.9,0.9,2.6,1.5c1.9-0.2,5.7-0.2,6.2,3.3c6.3,1.6,9.1,8.8,3.3,12.4c-0.3-4-5.4-4.9-6.5-2
	c-0.1,2.4-0.6,6.6-5.7,7.2c-1,0.3-0.8,1-2.4,1.4c-0.6,0.1-1,0.1-1.6,0.2c-1.6,0.3-2.7,0.5-2.8,2l0,0.5c1.3,0.5,1.8,1.7,1.8,2.9
	c15.6,9.9,22.8-3.6,26.1-10.7C286,78.6,289.6,75.1,293.7,73.6z M314.9,161.6L314.9,161.6l0.2,0.1l0,0l0,0l0.1,0l0.3,0.1l0,0l0,0l0,0
	l0.3,0.1l0,0l0,0l0,0l0,0l0,0l0,0l0.3,0.1l0,0c0.1,0.1,0.2,0.1,0.3,0.2l0,0l0,0c0.1,0.1,0.3,0.1,0.4,0.2c-0.9-5.7-1.3-9.6-1.8-13.2
	c-2.9,0.5-6.8-3.1-8.2-7.3C306.9,150.1,308.3,157.7,314.9,161.6z M171.3,163c3.9,9.2,9.6,17.5,16.6,24.4
	c14.1,14.1,33.5,22.9,55,22.9v0h0h0v0c21.4,0,40.9-8.8,55-22.9c6.9-6.9,12.4-15,16.4-24c-6.7-4.3-9.2-12.9-8.6-22.7
	c-5.3-1.7-9.3-6-8.9-11c-4.4-0.5-5.8-2.8-6-6.2c-1.2-0.7-4.7-3.1-5-5.8c-1.8,1.3-4.1-0.3-4.4-1.2c-1.7,1.1-4.9,0.3-5.9-1.5
	c-2,0-4-1.6-4-2.2c1.1,1.3,0.7,8.8-2.2,13.5c-0.7,4.6-3.3,12.9-1.7,18.6c1.9,6.8,4,10.1,7.5,15.4c0.9,1.6,1.2,2,2.5,0.4
	c2.2-2.7,6.1-6.7,9.1-6.6c2-1.1,8.2-0.1,8.1,4.5c0.3,0,0.5,0.1,0.7,0.1c7.1,1.3,6.3,8.9,3.3,11.6c0.4-4.9-3.4-7.2-4.1-5.8
	c0.9,1,0.6,3-0.4,4.1c4.6,1.9,2.8,12.8-4.5,10c4.5-3.5,3.2-6.8,0.8-5.9c0.8,4-7.9,4.2-8.7-0.5c-1.9,0.6-3.8,0.5-5.1-1
	c-1.2,1-2.6,1-3.9,0.1c-1,0.6-2.5,0.5-3.3-0.7c-0.1-0.1-0.4,0.2-0.5,0.1c-2.1,4-6.6,3.9-8.2-0.5c-1.2-1.8-2.8,0.2-2.1,1.4
	c0.4,0.7,1.2,1.4,2.2,2.5c-0.7,0.4-1.5,0.3-2.1,0.2c-0.5-0.2-0.6-0.2-1-0.5c1.4,2.7,3.6,4.4,5.7,5.9c3.7,2.3,7.5,3.7,11.4,5.7
	c0.2,0.1,0.4,0.2,0.6,0.4c0.8,0.5,1.3,1.2,1.6,2.1c1.7,2.9-1.3,8.3-5.6,6.6c0,0-0.1,0-0.1,0c0.1,0.3,0.3,0.7,0.3,1
	c1.5,4.5-4.2,7.2-6.6,4.1l0,0l-0.1-0.1c0.1,0.3,0.1,0.5,0.2,0.8c0.8,3.8-4.6,7-7.5,3.1c-0.1,4.1-6,5.1-7.5,0.8
	c0-0.1-0.1-0.2-0.1-0.3c0.2,5.4-6.7,6-7.5,0.9c0,0.2-0.1,0.4-0.1,0.6c0,0,0,0,0,0.1c0,0,0,0.1,0,0.1c-1.4,4.2-7.5,3.4-7.3-1.8
	c0,0.1-0.1,0.2-0.1,0.3c-1.5,4.3-7.5,3.3-7.5-0.8c-3,4-8.5,0.6-7.5-3.3c0-0.2,0.1-0.4,0.2-0.6c0,0-0.1,0.1-0.1,0.1l0,0h0
	c-2.5,3.2-8.4,0.3-6.5-4.5c0.1-0.2,0.2-0.4,0.3-0.7c0,0-0.1,0-0.1,0.1c-4.4,1.9-7.4-3.9-5.4-6.9c0.3-0.7,0.8-1.3,1.5-1.7
	c0.2-0.1,0.4-0.3,0.6-0.4c3.3-1.6,6.6-3,9.8-4.7c2.9-1.7,5.6-3.6,7.4-7c-0.4,0.3-0.5,0.3-1,0.5c-0.7,0.1-1.4,0.2-2.1-0.2
	c1.1-1.1,1.9-1.8,2.3-2.5c0.7-1.2-0.8-3.2-2.1-1.4c-1.6,4.4-6.1,4.6-8.2,0.5c-0.1,0.1-0.4-0.2-0.5-0.1c-0.9,1.1-2.3,1.2-3.3,0.6
	c-1.3,0.9-2.7,0.8-3.9-0.1c-1.3,1.5-3.2,1.6-5.1,1c-0.9,4.6-9.5,4.3-8.7,0.3c-2.4-0.9-3.7,2.4,0.8,5.9c-7.2,2.7-9.1-8.2-4.4-10
	c-1-1.1-1.3-3.1-0.4-4.1c-0.6-1.4-4.5,0.9-4.1,5.8c-3-2.8-3.8-10.4,3.4-11.6c0.2,0,0.5-0.1,0.8-0.1c-0.1-4.6,6.1-5.6,8.1-4.5
	c3.1,0,7,4,9.2,6.6c1.3,1.6,1.6,1.2,2.5-0.4c3.5-5.2,5.7-8.6,7.6-15.3c1.6-5.7-0.9-14-1.6-18.6c-2.9-4.7-3.3-12.2-2.1-13.5
	c0,0.5-2.1,2.2-4,2.2c-1.1,1.8-4.3,2.6-5.9,1.5c-0.3,0.9-2.6,2.5-4.4,1.2c-0.2,2.7-3.8,5-5,5.7c-0.3,3.4-1.7,5.7-6.1,6.2
	c0.4,4.9-3.7,9.3-9,10.9C180.7,150.1,178.1,158.7,171.3,163z M168.6,161.9L168.6,161.9l0,0.3c0.1-0.1,0.3-0.1,0.4-0.2l0,0l0.3-0.1
	l0,0l0,0l0.1,0l0,0l0,0l0.1-0.1l0,0l0,0l0.2-0.1l0,0l0,0l0,0l0.1,0l0,0l0,0l0.2-0.1l0,0l0,0l0,0l0.3-0.2l0,0
	c6.7-3.8,8.2-11.5,8.1-19.5c-1.5,4.2-5.4,7.8-8.3,7.3C170,152.5,169.5,156.4,168.6,161.9z M316.4,164.6c-4.1,9.2-9.8,17.6-16.8,24.6
	c-14.5,14.6-34.6,23.6-56.8,23.6v0h0h0v0c-22.1,0-42.2-9-56.8-23.6c-7.1-7.2-12.9-15.6-17-25.1c-0.2,0.1-0.4,0.1-0.5,0.2
	c-1.4,8.7-4,43.8-18.9,33.2c2-3.1,5.5-17.3,6.8-25.3c-3.4,2.6-6.8,2-9.1,1.6c2.2-4.5,7.1-13.6,12.7-28.1c-0.8,1.6-5.3,3.7-9,1.2
	c4.2-7.5,10.8-24.2,16.3-42.3c-4.8,3.7-12.9,1.9-13.6-2.6c13.7-1.8,15.4-22.5,28.7-28.4c2.3-1.2,4.7-1.5,7-1.2
	C203.6,59.7,222.3,52,242.8,52v0h0h0v0c20.7,0,39.6,7.9,53.9,20.8c2.3-0.3,4.7,0,7,1.3c13.3,6.1,14.8,26.8,28.5,28.6
	c-0.7,4.5-8.8,6.2-13.6,2.5c5.4,18.1,11.8,34.8,16.1,42.4c-3.7,2.4-8.3,0.3-9-1.3c5.5,14.5,10.3,23.7,12.5,28.2
	c-2.4,0.4-5.7,1-9.1-1.7c1.3,8,4.7,22.2,6.6,25.4c-15,10.5-17.3-24.7-18.7-33.3C316.8,164.8,316.6,164.7,316.4,164.6z M248.9,184.2
	c-0.1-0.2-0.3-0.2-0.3,0.1c1,5.6,2.4,11.7,4.2,18.1c0.4,0.7,0.7,0.9,1.5,0.6c0.6-0.5,0.7-1,0.5-1.5
	C252.7,196.6,250.7,190.9,248.9,184.2z"/>
</svg>
